<svg width="18" height="19" viewBox="0 0 18 19" fill="none" xmlns="http://www.w3.org/2000/svg">
<g clip-path="url(#clip0_1_2980)">
<path d="M9 18.5C13.9706 18.5 18 14.4706 18 9.5C18 4.52944 13.9706 0.5 9 0.5C4.02944 0.5 0 4.52944 0 9.5C0 14.4706 4.02944 18.5 9 18.5Z" fill="#F0F0F0"/>
<path d="M8.60864 9.5H17.9999C17.9999 8.68768 17.8917 7.90074 17.6899 7.15216H8.60864V9.5Z" fill="#D80027"/>
<path d="M8.60864 4.80438H16.679C16.128 3.90537 15.4236 3.11073 14.6023 2.45654H8.60864V4.80438Z" fill="#D80027"/>
<path d="M9.00006 18.5C11.1182 18.5 13.065 17.7679 14.6024 16.5435H3.39771C4.93509 17.7679 6.88194 18.5 9.00006 18.5Z" fill="#D80027"/>
<path d="M1.32098 14.1957H16.6791C17.1214 13.474 17.4644 12.6851 17.69 11.8478H0.310059C0.535656 12.6851 0.878676 13.474 1.32098 14.1957Z" fill="#D80027"/>
<path d="M4.16897 1.90548H4.98913L4.22624 2.45971L4.51765 3.35652L3.75479 2.80228L2.99194 3.35652L3.24366 2.58178C2.57196 3.14129 1.98323 3.79681 1.49808 4.52722H1.76087L1.27526 4.88001C1.1996 5.00622 1.12704 5.13444 1.0575 5.26455L1.28939 5.97826L0.856758 5.66393C0.749215 5.89177 0.650848 6.12475 0.56243 6.36259L0.81791 7.14896H1.76087L0.99798 7.7032L1.28939 8.6L0.526535 8.04576L0.0695742 8.37778C0.0238359 8.74544 0 9.11993 0 9.5H9C9 4.52947 9 3.94348 9 0.5C7.22208 0.5 5.56471 1.01574 4.16897 1.90548ZM4.51765 8.6L3.75479 8.04576L2.99194 8.6L3.28335 7.7032L2.52046 7.14896H3.46342L3.75479 6.25216L4.04617 7.14896H4.98913L4.22624 7.7032L4.51765 8.6ZM4.22624 5.08146L4.51765 5.97826L3.75479 5.42402L2.99194 5.97826L3.28335 5.08146L2.52046 4.52722H3.46342L3.75479 3.63042L4.04617 4.52722H4.98913L4.22624 5.08146ZM7.74591 8.6L6.98305 8.04576L6.22019 8.6L6.51161 7.7032L5.74871 7.14896H6.69168L6.98305 6.25216L7.27443 7.14896H8.21739L7.4545 7.7032L7.74591 8.6ZM7.4545 5.08146L7.74591 5.97826L6.98305 5.42402L6.22019 5.97826L6.51161 5.08146L5.74871 4.52722H6.69168L6.98305 3.63042L7.27443 4.52722H8.21739L7.4545 5.08146ZM7.4545 2.45971L7.74591 3.35652L6.98305 2.80228L6.22019 3.35652L6.51161 2.45971L5.74871 1.90548H6.69168L6.98305 1.00868L7.27443 1.90548H8.21739L7.4545 2.45971Z" fill="#0052B4"/>
</g>
<defs>
<clipPath id="clip0_1_2980">
<rect width="18" height="18" fill="white" transform="translate(0 0.5)"/>
</clipPath>
</defs>
</svg>
