<svg width="42" height="42" viewBox="0 0 42 42" fill="none" xmlns="http://www.w3.org/2000/svg">
<g clip-path="url(#clip0_1524_965)">
<path d="M27.9735 19.6655C27.9735 19.6655 27.8994 20.7148 26.3974 21.1063C27.8977 21.498 27.9735 22.5473 27.9735 22.5473C28.1832 21.201 29.5494 21.1063 29.5494 21.1063C29.5494 21.1063 28.1832 21.0119 27.9735 19.6655Z" fill="white"/>
<path d="M39.7655 13.1692C39.4823 14.8664 39.1931 16.6674 37.8735 17.7152C37.346 18.1343 36.6999 18.3821 36.1709 18.8004C34.5603 20.0734 34.4735 22.4259 34.3861 24.4754C34.2988 26.525 33.8195 28.946 31.933 29.7491C29.6386 30.73 26.4629 28.7066 24.7096 30.4827C23.0549 32.1587 24.7267 35.3249 23.3368 37.2271C22.8754 37.8579 22.1485 38.2302 21.449 38.58C20.2739 39.1673 18.9886 39.7528 17.6982 40.0954C19.0645 40.3926 20.4587 40.5427 21.857 40.5433C32.6519 40.5433 41.4026 31.7926 41.4026 20.9979C41.4044 18.3032 40.847 15.6374 39.7655 13.1692Z" fill="#EA5251"/>
<path d="M21.8578 1.45654C11.0629 1.45654 2.31219 10.2072 2.31219 21.0021C2.31219 30.3693 8.90319 38.1932 17.6994 40.0997C18.99 39.7554 20.2744 39.1696 21.4504 38.5842C22.1493 38.2326 22.8761 37.8606 23.3374 37.2294C24.7275 35.3278 23.0555 32.1611 24.7105 30.4851C26.4634 28.709 29.6386 30.7324 31.9335 29.7515C33.82 28.9455 34.3006 26.525 34.3869 24.4778C34.4729 22.4309 34.5607 20.0727 36.1714 18.8029C36.7005 18.3858 37.3468 18.1362 37.874 17.7179C39.1936 16.6697 39.4829 14.8687 39.766 13.1716C36.7452 6.27504 29.8665 1.45654 21.8578 1.45654ZM28.4677 21.304C28.3554 23.7914 26.8552 26.0047 24.5864 27.0305C22.3174 28.0564 19.6648 27.7205 17.7231 26.1618C15.6484 24.9896 14.3657 22.791 14.366 20.408C14.3645 17.8631 15.8235 15.5436 18.1179 14.4429C20.4124 13.3424 23.1347 13.6566 25.1184 15.2508C27.2854 16.4767 28.5801 18.8165 28.4677 21.304Z" fill="#5C1612"/>
<path d="M15.2425 21.0022C15.2393 18.6472 16.4897 16.4684 18.5248 15.2833C20.5596 14.0982 23.0717 14.0858 25.1184 15.2508C23.1766 13.6921 20.5238 13.3562 18.2551 14.3821C15.9864 15.4078 14.4861 17.6212 14.3736 20.1087C14.2613 22.5961 15.5559 24.9359 17.7231 26.1619C16.9487 25.5433 16.3236 24.7583 15.8941 23.8651C15.4647 22.9718 15.242 21.9933 15.2425 21.0022ZM39.7655 13.1692C39.6441 13.9104 39.5119 14.6682 39.3012 15.3773C39.7527 17.0163 39.9816 18.7085 39.9817 20.4085C39.9786 30.8695 31.5007 39.3504 21.0387 39.3504C20.6519 39.3504 20.2684 39.3352 19.8872 39.3124C19.178 39.6284 18.4465 39.8917 17.6987 40.1003C19.0651 40.3974 20.4594 40.5476 21.8578 40.5483C32.6525 40.5483 41.4032 31.7974 41.4032 21.0027C41.4055 18.3063 40.8478 15.6388 39.7655 13.1692Z" fill="#A64342"/>
<path d="M39.3012 15.3773C39.5125 14.6681 39.6422 13.9104 39.7655 13.1692C36.7452 6.27504 29.8665 1.45654 21.8578 1.45654C21.6614 1.45654 21.4674 1.4657 21.2721 1.47175C29.8883 1.57579 37.1163 7.43026 39.3012 15.3773ZM3.08752 26.4528C5.06972 33.2875 10.6806 38.5764 17.6963 40.1002C18.4441 39.8917 19.1755 39.6283 19.8846 39.3123C12.0456 38.8419 5.49393 33.6015 3.08752 26.4528Z" fill="#A64342"/>
<path d="M29.9404 26.6656C29.8673 26.6081 29.8199 26.524 29.8085 26.4317C29.7972 26.3394 29.8228 26.2464 29.8798 26.1729L31.0225 24.7124C31.08 24.6393 31.1641 24.5918 31.2564 24.5805C31.3488 24.5692 31.4418 24.5948 31.5153 24.6519C31.5885 24.7094 31.6359 24.7935 31.6473 24.8858C31.6586 24.9782 31.6329 25.0713 31.5759 25.1448L30.4327 26.6049C30.3752 26.6779 30.2912 26.7253 30.199 26.7366C30.1068 26.748 30.0139 26.7224 29.9404 26.6656Z" fill="#F1E289"/>
<path d="M19.7422 33.961C19.6492 33.9606 19.5602 33.9235 19.4944 33.8577C19.4286 33.792 19.3915 33.7029 19.3911 33.6099V31.7526C19.3915 31.6596 19.4286 31.5706 19.4944 31.5048C19.5601 31.4391 19.6492 31.4021 19.7422 31.4019C19.8352 31.4022 19.9243 31.4392 19.99 31.5049C20.0558 31.5706 20.0929 31.6596 20.0933 31.7526V33.6071C20.0936 33.7006 20.0568 33.7903 19.9911 33.8567C19.9252 33.923 19.8357 33.9605 19.7422 33.961Z" fill="#BBDBA0"/>
<path d="M30.2036 12.8271C30.197 12.9198 30.1541 13.006 30.0841 13.0671C30.0142 13.1282 29.9229 13.1591 29.8302 13.1531L27.98 13.0277C27.8873 13.021 27.8009 12.9779 27.7399 12.9078C27.6788 12.8377 27.648 12.7463 27.6541 12.6536C27.6606 12.5609 27.7035 12.4746 27.7735 12.4136C27.8434 12.3525 27.9347 12.3216 28.0274 12.3277L29.8775 12.4529C29.9703 12.4595 30.0567 12.5026 30.1178 12.5727C30.1789 12.6428 30.2098 12.7343 30.2036 12.8271Z" fill="#F1E289"/>
<path d="M23.7635 8.11478C23.6765 8.14743 23.5801 8.14433 23.4954 8.10617C23.4107 8.06801 23.3446 7.99789 23.3114 7.91112L22.6543 6.17616C22.6217 6.08919 22.6248 5.99284 22.6629 5.90812C22.701 5.8234 22.771 5.75717 22.8578 5.72388C22.9448 5.6912 23.0412 5.69428 23.1259 5.73245C23.2107 5.77062 23.2769 5.84078 23.31 5.9276L23.9666 7.66178C23.9993 7.74882 23.9963 7.84526 23.9583 7.9301C23.9202 8.01494 23.8502 8.08132 23.7635 8.11478ZM32.927 18.1905C32.9446 18.2818 32.9252 18.3763 32.8731 18.4533C32.8211 18.5304 32.7406 18.5836 32.6494 18.6014L30.8311 18.9543C30.7398 18.9716 30.6454 18.9521 30.5684 18.9001C30.4914 18.8481 30.438 18.7678 30.42 18.6766C30.4026 18.5854 30.422 18.4909 30.474 18.4139C30.5261 18.3369 30.6065 18.2837 30.6977 18.2658L32.5162 17.9129C32.6075 17.8954 32.702 17.9148 32.779 17.9669C32.856 18.0189 32.9092 18.0993 32.927 18.1905Z" fill="#BC66A5"/>
<path d="M35.3849 13.3037C35.3157 13.3656 35.2248 13.3976 35.1321 13.3928C35.0394 13.3881 34.9523 13.3469 34.8897 13.2783L33.6477 11.9014C33.5857 11.8322 33.5535 11.7413 33.5583 11.6485C33.5631 11.5558 33.6044 11.4686 33.6732 11.4062C33.7424 11.3442 33.8333 11.3121 33.9261 11.3169C34.0189 11.3217 34.106 11.363 34.1684 11.4319L35.4105 12.8053C35.4417 12.8396 35.4658 12.8798 35.4813 12.9235C35.4969 12.9671 35.5036 13.0135 35.5012 13.0598C35.4988 13.1061 35.4874 13.1515 35.4674 13.1933C35.4475 13.2352 35.4194 13.2727 35.3849 13.3037Z" fill="#A2C7E8"/>
<path d="M8.92685 18.4336C8.83379 18.4334 8.74459 18.3964 8.67878 18.3306C8.61297 18.2648 8.57592 18.1756 8.57574 18.0825V16.2282C8.576 16.1352 8.61307 16.0461 8.67887 15.9803C8.74466 15.9145 8.83382 15.8774 8.92685 15.8772C9.01984 15.8776 9.1089 15.9147 9.17465 15.9805C9.2404 16.0462 9.27751 16.1353 9.2779 16.2282V18.0825C9.27757 18.1755 9.24048 18.2646 9.17472 18.3304C9.10896 18.3961 9.01986 18.4332 8.92685 18.4336Z" fill="#F1E289"/>
<path d="M8.79891 23.7432C8.79244 23.8359 8.74953 23.9222 8.67955 23.9833C8.60958 24.0445 8.51825 24.0754 8.42553 24.0694L6.57551 23.944C6.48272 23.9374 6.3963 23.8944 6.33516 23.8243C6.27402 23.7542 6.24315 23.6627 6.24931 23.5699C6.25583 23.4772 6.29877 23.3909 6.36872 23.3298C6.43868 23.2686 6.52998 23.2377 6.62269 23.2436L8.47264 23.3692C8.56543 23.3757 8.65185 23.4187 8.713 23.4888C8.77415 23.5589 8.80504 23.6504 8.79891 23.7432Z" fill="#BBDBA0"/>
<path d="M12.8311 12.5576C12.8971 12.4922 12.9863 12.4556 13.0792 12.4556C13.1721 12.4556 13.2612 12.4922 13.3272 12.5576L14.6408 13.8688C14.7064 13.9347 14.7432 14.0239 14.7432 14.1169C14.7432 14.2099 14.7064 14.2991 14.6408 14.3651C14.5748 14.4304 14.4857 14.4671 14.3928 14.4671C14.2999 14.4671 14.2107 14.4304 14.1447 14.3651L12.8312 13.0538C12.7656 12.9879 12.7287 12.8987 12.7287 12.8057C12.7287 12.7127 12.7655 12.6235 12.8311 12.5576Z" fill="#A2C7E8"/>
<path d="M13.6336 8.37233C13.5874 8.2916 13.575 8.19585 13.5991 8.10601C13.6232 8.01616 13.6819 7.93951 13.7624 7.8928L15.368 6.96597C15.4487 6.91976 15.5445 6.90736 15.6343 6.93149C15.7241 6.95561 15.8008 7.0143 15.8475 7.09474C15.8937 7.1754 15.9061 7.27107 15.8821 7.36087C15.858 7.45066 15.7994 7.52729 15.719 7.57402L14.1131 8.50169C14.0322 8.54773 13.9365 8.55996 13.8467 8.53573C13.7569 8.5115 13.6803 8.45277 13.6336 8.37233Z" fill="#BBDBA0"/>
<path d="M10.5721 28.1247C10.5337 28.0402 10.5302 27.944 10.5624 27.8569C10.5946 27.7699 10.6599 27.699 10.744 27.6599L12.4293 26.8859C12.5138 26.8474 12.6101 26.8439 12.6972 26.8761C12.7843 26.9083 12.8551 26.9736 12.8942 27.0578C12.9328 27.1424 12.9364 27.2389 12.9041 27.3261C12.8718 27.4134 12.8064 27.4843 12.722 27.5235L11.0369 28.2975C10.9523 28.3358 10.856 28.3392 10.7689 28.3068C10.6818 28.2745 10.6111 28.209 10.5721 28.1247Z" fill="#B94C97"/>
<path d="M20.8898 41.1921C9.70016 41.1921 0.596741 32.0887 0.596741 20.8992C0.596741 18.1598 1.13331 15.5021 2.19155 13.0001C2.21119 12.9536 2.23979 12.9115 2.27572 12.8761C2.31165 12.8406 2.35421 12.8126 2.40097 12.7937C2.44772 12.7747 2.49776 12.7651 2.54821 12.7655C2.59866 12.7659 2.64855 12.7762 2.69502 12.7959C2.78886 12.8356 2.86309 12.9109 2.90139 13.0053C2.9397 13.0998 2.93894 13.2055 2.89928 13.2994C1.88133 15.7062 1.36511 18.2632 1.36511 20.8992C1.36511 31.665 10.1238 40.4237 20.8898 40.4237C31.6556 40.4237 40.4143 31.665 40.4143 20.8992C40.4143 10.1332 31.6556 1.37451 20.8898 1.37451C16.3476 1.37451 11.9241 2.96849 8.43407 5.86285C8.35564 5.92789 8.25459 5.95912 8.15314 5.94965C8.0517 5.94019 7.95817 5.89081 7.89312 5.81239C7.82808 5.73396 7.79686 5.63291 7.80632 5.53146C7.81579 5.43002 7.86517 5.33649 7.94359 5.27144C11.5711 2.26303 16.1688 0.606201 20.8897 0.606201C32.0792 0.606201 41.1826 9.70962 41.1826 20.8992C41.1827 32.0886 32.0793 41.1921 20.8898 41.1921Z" fill="black"/>
<path d="M3.82826 11.0168C3.76022 11.0168 3.69341 10.9987 3.63467 10.9643C3.57593 10.93 3.52737 10.8807 3.49394 10.8214C3.46052 10.7621 3.44343 10.695 3.44444 10.627C3.44544 10.559 3.4645 10.4924 3.49966 10.4342C4.21678 9.24577 5.05332 8.13368 5.99629 7.11517C6.03055 7.07814 6.07177 7.04822 6.1176 7.02712C6.16343 7.00602 6.21297 6.99417 6.26339 6.99223C6.3138 6.99029 6.3641 6.9983 6.41142 7.01581C6.45874 7.03332 6.50214 7.05999 6.53915 7.09428C6.57617 7.12854 6.60609 7.16977 6.62718 7.2156C6.64827 7.26143 6.66013 7.31097 6.66207 7.36138C6.66401 7.41179 6.65599 7.46209 6.63849 7.50941C6.62098 7.55673 6.59432 7.60013 6.56004 7.63714C5.65271 8.61727 4.84774 9.68741 4.15764 10.831C4.12345 10.8877 4.07515 10.9347 4.01743 10.9673C3.95971 10.9998 3.89454 11.0169 3.82826 11.0168Z" fill="black"/>
<path d="M7.96617 11.1228C7.88204 11.1229 7.80025 11.0952 7.73347 11.044C7.69336 11.0134 7.65966 10.9752 7.63432 10.9316C7.60897 10.888 7.59247 10.8398 7.58575 10.7898C7.57904 10.7398 7.58224 10.689 7.59518 10.6402C7.60811 10.5914 7.63053 10.5457 7.66115 10.5056C9.11869 8.59541 10.8839 6.97252 12.9079 5.68206C12.9938 5.62729 13.0979 5.60889 13.1974 5.6309C13.2968 5.65291 13.3835 5.71353 13.4382 5.79943C13.493 5.88532 13.5114 5.98946 13.4894 6.08892C13.4674 6.18839 13.4068 6.27504 13.3209 6.3298C11.3733 7.57171 9.6746 9.13342 8.2719 10.9716C8.23605 11.0187 8.1898 11.0569 8.13676 11.0831C8.08372 11.1093 8.02533 11.1229 7.96617 11.1228ZM26.2335 27.9408C26.1773 27.9409 26.1217 27.9286 26.0707 27.9048C26.0197 27.881 25.9746 27.8463 25.9385 27.8031C25.8732 27.7249 25.8416 27.6239 25.8506 27.5224C25.8597 27.421 25.9087 27.3272 25.9868 27.2618C27.2421 26.2123 28.2983 24.9684 29.1262 23.565C29.1787 23.4786 29.263 23.4164 29.361 23.3918C29.459 23.3671 29.5628 23.3821 29.6499 23.4335C29.7369 23.4848 29.8002 23.5684 29.8261 23.6661C29.8519 23.7638 29.8383 23.8677 29.788 23.9554C28.9155 25.4346 27.8024 26.7454 26.4797 27.8513C26.4108 27.9092 26.3236 27.9409 26.2335 27.9408Z" fill="white"/>
</g>
<defs>
<clipPath id="clip0_1524_965">
<rect width="42" height="42" fill="white"/>
</clipPath>
</defs>
</svg>
