<svg width="1440" height="101" viewBox="0 0 1440 101" fill="none" xmlns="http://www.w3.org/2000/svg">
<g filter="url(#filter0_d_1_3243)">
<mask id="path-1-inside-1_1_3243" fill="white">
<path d="M0 0H1440V69.7095H0V0Z"/>
</mask>
<path d="M0 0H1440V69.7095H0V0Z" fill="white"/>
<path d="M1440 68.7095H0V70.7095H1440V68.7095Z" fill="black" fill-opacity="0.1" mask="url(#path-1-inside-1_1_3243)"/>
</g>
<g clip-path="url(#clip0_1_3243)">
<path d="M57.9735 33.6655C57.9735 33.6655 57.8994 34.7148 56.3974 35.1063C57.8977 35.498 57.9735 36.5473 57.9735 36.5473C58.1832 35.201 59.5494 35.1063 59.5494 35.1063C59.5494 35.1063 58.1832 35.0119 57.9735 33.6655Z" fill="white"/>
<path d="M69.7655 27.1692C69.4823 28.8664 69.1931 30.6674 67.8735 31.7152C67.346 32.1343 66.6999 32.3821 66.1709 32.8004C64.5603 34.0734 64.4735 36.4259 64.3861 38.4754C64.2988 40.525 63.8195 42.946 61.933 43.7491C59.6386 44.73 56.4629 42.7066 54.7096 44.4827C53.0549 46.1587 54.7267 49.3249 53.3368 51.2271C52.8754 51.8579 52.1485 52.2302 51.449 52.58C50.2739 53.1673 48.9886 53.7528 47.6982 54.0954C49.0645 54.3926 50.4587 54.5427 51.857 54.5433C62.6519 54.5433 71.4026 45.7926 71.4026 34.9979C71.4044 32.3032 70.847 29.6374 69.7655 27.1692Z" fill="#EA5251"/>
<path d="M51.8578 15.4565C41.0629 15.4565 32.3122 24.2072 32.3122 35.0021C32.3122 44.3693 38.9032 52.1932 47.6994 54.0997C48.99 53.7554 50.2744 53.1696 51.4504 52.5842C52.1493 52.2326 52.8761 51.8606 53.3374 51.2294C54.7275 49.3278 53.0555 46.1611 54.7105 44.4851C56.4634 42.709 59.6386 44.7324 61.9335 43.7515C63.82 42.9455 64.3006 40.525 64.3869 38.4778C64.4729 36.4309 64.5607 34.0727 66.1714 32.8029C66.7005 32.3858 67.3468 32.1362 67.874 31.7179C69.1936 30.6697 69.4829 28.8687 69.766 27.1716C66.7452 20.275 59.8665 15.4565 51.8578 15.4565ZM58.4677 35.304C58.3554 37.7914 56.8552 40.0047 54.5864 41.0305C52.3174 42.0564 49.6648 41.7205 47.7231 40.1618C45.6484 38.9896 44.3657 36.791 44.366 34.408C44.3645 31.8631 45.8235 29.5436 48.1179 28.4429C50.4124 27.3424 53.1347 27.6566 55.1184 29.2508C57.2854 30.4767 58.5801 32.8165 58.4677 35.304Z" fill="#5C1612"/>
<path d="M45.2425 35.0022C45.2393 32.6472 46.4897 30.4684 48.5248 29.2833C50.5596 28.0982 53.0717 28.0858 55.1184 29.2508C53.1766 27.6921 50.5238 27.3562 48.2551 28.3821C45.9864 29.4078 44.4861 31.6212 44.3736 34.1087C44.2613 36.5961 45.5559 38.9359 47.7231 40.1619C46.9487 39.5433 46.3236 38.7583 45.8941 37.8651C45.4647 36.9718 45.242 35.9933 45.2425 35.0022ZM69.7655 27.1692C69.6441 27.9104 69.5119 28.6682 69.3012 29.3773C69.7527 31.0163 69.9816 32.7085 69.9817 34.4085C69.9786 44.8695 61.5007 53.3504 51.0387 53.3504C50.6519 53.3504 50.2684 53.3352 49.8872 53.3124C49.178 53.6284 48.4465 53.8917 47.6987 54.1003C49.0651 54.3974 50.4594 54.5476 51.8578 54.5483C62.6525 54.5483 71.4032 45.7974 71.4032 35.0027C71.4055 32.3063 70.8478 29.6388 69.7655 27.1692Z" fill="#A64342"/>
<path d="M69.3012 29.3773C69.5125 28.6681 69.6422 27.9104 69.7655 27.1692C66.7452 20.275 59.8665 15.4565 51.8578 15.4565C51.6614 15.4565 51.4674 15.4657 51.2721 15.4717C59.8883 15.5758 67.1163 21.4303 69.3012 29.3773ZM33.0875 40.4528C35.0697 47.2875 40.6806 52.5764 47.6963 54.1002C48.4441 53.8917 49.1755 53.6283 49.8846 53.3123C42.0456 52.8419 35.4939 47.6015 33.0875 40.4528Z" fill="#A64342"/>
<path d="M59.9404 40.6656C59.8673 40.6081 59.8199 40.524 59.8085 40.4317C59.7972 40.3394 59.8228 40.2464 59.8798 40.1729L61.0225 38.7124C61.08 38.6393 61.1641 38.5918 61.2564 38.5805C61.3488 38.5692 61.4418 38.5948 61.5153 38.6519C61.5885 38.7094 61.6359 38.7935 61.6473 38.8858C61.6586 38.9782 61.6329 39.0713 61.5759 39.1448L60.4327 40.6049C60.3752 40.6779 60.2912 40.7253 60.199 40.7366C60.1068 40.748 60.0139 40.7224 59.9404 40.6656Z" fill="#F1E289"/>
<path d="M49.7422 47.961C49.6492 47.9606 49.5602 47.9235 49.4944 47.8577C49.4286 47.792 49.3915 47.7029 49.3911 47.6099V45.7526C49.3915 45.6596 49.4286 45.5706 49.4944 45.5048C49.5601 45.4391 49.6492 45.4021 49.7422 45.4019C49.8352 45.4022 49.9243 45.4392 49.99 45.5049C50.0558 45.5706 50.0929 45.6596 50.0933 45.7526V47.6071C50.0936 47.7006 50.0568 47.7903 49.9911 47.8567C49.9252 47.923 49.8357 47.9605 49.7422 47.961Z" fill="#BBDBA0"/>
<path d="M60.2036 26.8271C60.197 26.9198 60.1541 27.006 60.0841 27.0671C60.0142 27.1282 59.9229 27.1591 59.8302 27.1531L57.98 27.0277C57.8873 27.021 57.8009 26.9779 57.7399 26.9078C57.6788 26.8377 57.648 26.7463 57.6541 26.6536C57.6606 26.5609 57.7035 26.4746 57.7735 26.4136C57.8434 26.3525 57.9347 26.3216 58.0274 26.3277L59.8775 26.4529C59.9703 26.4595 60.0567 26.5026 60.1178 26.5727C60.1789 26.6428 60.2098 26.7343 60.2036 26.8271Z" fill="#F1E289"/>
<path d="M53.7635 22.1148C53.6765 22.1474 53.5801 22.1443 53.4954 22.1062C53.4107 22.068 53.3446 21.9979 53.3114 21.9111L52.6543 20.1762C52.6217 20.0892 52.6248 19.9928 52.6629 19.9081C52.701 19.8234 52.771 19.7572 52.8578 19.7239C52.9448 19.6912 53.0412 19.6943 53.1259 19.7325C53.2107 19.7706 53.2769 19.8408 53.31 19.9276L53.9666 21.6618C53.9993 21.7488 53.9963 21.8453 53.9583 21.9301C53.9202 22.0149 53.8502 22.0813 53.7635 22.1148ZM62.927 32.1905C62.9446 32.2818 62.9252 32.3763 62.8731 32.4533C62.8211 32.5304 62.7406 32.5836 62.6494 32.6014L60.8311 32.9543C60.7398 32.9716 60.6454 32.9521 60.5684 32.9001C60.4914 32.8481 60.438 32.7678 60.42 32.6766C60.4026 32.5854 60.422 32.4909 60.474 32.4139C60.5261 32.3369 60.6065 32.2837 60.6977 32.2658L62.5162 31.9129C62.6075 31.8954 62.702 31.9148 62.779 31.9669C62.856 32.0189 62.9092 32.0993 62.927 32.1905Z" fill="#BC66A5"/>
<path d="M65.3849 27.3037C65.3157 27.3656 65.2248 27.3976 65.1321 27.3928C65.0394 27.3881 64.9523 27.3469 64.8897 27.2783L63.6477 25.9014C63.5857 25.8322 63.5535 25.7413 63.5583 25.6485C63.5631 25.5558 63.6044 25.4686 63.6732 25.4062C63.7424 25.3442 63.8333 25.3121 63.9261 25.3169C64.0189 25.3217 64.106 25.363 64.1684 25.4319L65.4105 26.8053C65.4417 26.8396 65.4658 26.8798 65.4813 26.9235C65.4969 26.9671 65.5036 27.0135 65.5012 27.0598C65.4988 27.1061 65.4874 27.1515 65.4674 27.1933C65.4475 27.2352 65.4194 27.2727 65.3849 27.3037Z" fill="#A2C7E8"/>
<path d="M38.9269 32.4336C38.8338 32.4334 38.7446 32.3964 38.6788 32.3306C38.613 32.2648 38.5759 32.1756 38.5757 32.0825V30.2282C38.576 30.1352 38.6131 30.0461 38.6789 29.9803C38.7447 29.9145 38.8338 29.8774 38.9269 29.8772C39.0198 29.8776 39.1089 29.9147 39.1746 29.9805C39.2404 30.0462 39.2775 30.1353 39.2779 30.2282V32.0825C39.2776 32.1755 39.2405 32.2646 39.1747 32.3304C39.109 32.3961 39.0199 32.4332 38.9269 32.4336Z" fill="#F1E289"/>
<path d="M38.7989 37.7432C38.7924 37.8359 38.7495 37.9222 38.6796 37.9833C38.6096 38.0445 38.5182 38.0754 38.4255 38.0694L36.5755 37.944C36.4827 37.9374 36.3963 37.8944 36.3352 37.8243C36.274 37.7542 36.2432 37.6627 36.2493 37.5699C36.2558 37.4772 36.2988 37.3909 36.3687 37.3298C36.4387 37.2686 36.53 37.2377 36.6227 37.2436L38.4726 37.3692C38.5654 37.3757 38.6519 37.4187 38.713 37.4888C38.7742 37.5589 38.805 37.6504 38.7989 37.7432Z" fill="#BBDBA0"/>
<path d="M42.8311 26.5576C42.8971 26.4922 42.9863 26.4556 43.0792 26.4556C43.1721 26.4556 43.2612 26.4922 43.3272 26.5576L44.6408 27.8688C44.7064 27.9347 44.7432 28.0239 44.7432 28.1169C44.7432 28.2099 44.7064 28.2991 44.6408 28.3651C44.5748 28.4304 44.4857 28.4671 44.3928 28.4671C44.2999 28.4671 44.2107 28.4304 44.1447 28.3651L42.8312 27.0538C42.7656 26.9879 42.7287 26.8987 42.7287 26.8057C42.7287 26.7127 42.7655 26.6235 42.8311 26.5576Z" fill="#A2C7E8"/>
<path d="M43.6336 22.3723C43.5874 22.2916 43.575 22.1959 43.5991 22.106C43.6232 22.0162 43.6819 21.9395 43.7624 21.8928L45.368 20.966C45.4487 20.9198 45.5445 20.9074 45.6343 20.9315C45.7241 20.9556 45.8008 21.0143 45.8475 21.0947C45.8937 21.1754 45.9061 21.2711 45.8821 21.3609C45.858 21.4507 45.7994 21.5273 45.719 21.574L44.1131 22.5017C44.0322 22.5477 43.9365 22.56 43.8467 22.5357C43.7569 22.5115 43.6803 22.4528 43.6336 22.3723Z" fill="#BBDBA0"/>
<path d="M40.5721 42.1247C40.5337 42.0402 40.5302 41.944 40.5624 41.8569C40.5946 41.7699 40.6599 41.699 40.744 41.6599L42.4293 40.8859C42.5138 40.8474 42.6101 40.8439 42.6972 40.8761C42.7843 40.9083 42.8551 40.9736 42.8942 41.0578C42.9328 41.1424 42.9364 41.2389 42.9041 41.3261C42.8718 41.4134 42.8064 41.4843 42.722 41.5235L41.0369 42.2975C40.9523 42.3358 40.856 42.3392 40.7689 42.3068C40.6818 42.2745 40.6111 42.209 40.5721 42.1247Z" fill="#B94C97"/>
<path d="M50.8898 55.1921C39.7002 55.1921 30.5967 46.0887 30.5967 34.8992C30.5967 32.1598 31.1333 29.5021 32.1916 27.0001C32.2112 26.9536 32.2398 26.9115 32.2757 26.8761C32.3117 26.8406 32.3542 26.8126 32.401 26.7937C32.4477 26.7747 32.4978 26.7651 32.5482 26.7655C32.5987 26.7659 32.6486 26.7762 32.695 26.7959C32.7889 26.8356 32.8631 26.9109 32.9014 27.0053C32.9397 27.0998 32.9389 27.2055 32.8993 27.2994C31.8813 29.7062 31.3651 32.2632 31.3651 34.8992C31.3651 45.665 40.1238 54.4237 50.8898 54.4237C61.6556 54.4237 70.4143 45.665 70.4143 34.8992C70.4143 24.1332 61.6556 15.3745 50.8898 15.3745C46.3476 15.3745 41.9241 16.9685 38.4341 19.8629C38.3556 19.9279 38.2546 19.9591 38.1531 19.9497C38.0517 19.9402 37.9582 19.8908 37.8931 19.8124C37.8281 19.734 37.7969 19.6329 37.8063 19.5315C37.8158 19.43 37.8652 19.3365 37.9436 19.2714C41.5711 16.263 46.1688 14.6062 50.8897 14.6062C62.0792 14.6062 71.1826 23.7096 71.1826 34.8992C71.1827 46.0886 62.0793 55.1921 50.8898 55.1921Z" fill="black"/>
<path d="M33.8283 25.0168C33.7602 25.0168 33.6934 24.9987 33.6347 24.9643C33.5759 24.93 33.5274 24.8807 33.4939 24.8214C33.4605 24.7621 33.4434 24.695 33.4444 24.627C33.4454 24.559 33.4645 24.4924 33.4997 24.4342C34.2168 23.2458 35.0533 22.1337 35.9963 21.1152C36.0305 21.0781 36.0718 21.0482 36.1176 21.0271C36.1634 21.006 36.213 20.9942 36.2634 20.9922C36.3138 20.9903 36.3641 20.9983 36.4114 21.0158C36.4587 21.0333 36.5021 21.06 36.5391 21.0943C36.5762 21.1285 36.6061 21.1698 36.6272 21.2156C36.6483 21.2614 36.6601 21.311 36.6621 21.3614C36.664 21.4118 36.656 21.4621 36.6385 21.5094C36.621 21.5567 36.5943 21.6001 36.56 21.6371C35.6527 22.6173 34.8477 23.6874 34.1576 24.831C34.1235 24.8877 34.0751 24.9347 34.0174 24.9673C33.9597 24.9998 33.8945 25.0169 33.8283 25.0168Z" fill="black"/>
<path d="M37.9662 25.1228C37.882 25.1229 37.8002 25.0952 37.7335 25.044C37.6934 25.0134 37.6597 24.9752 37.6343 24.9316C37.609 24.888 37.5925 24.8398 37.5858 24.7898C37.579 24.7398 37.5822 24.689 37.5952 24.6402C37.6081 24.5914 37.6305 24.5457 37.6612 24.5056C39.1187 22.5954 40.8839 20.9725 42.9079 19.6821C42.9938 19.6273 43.0979 19.6089 43.1974 19.6309C43.2968 19.6529 43.3835 19.7135 43.4382 19.7994C43.493 19.8853 43.5114 19.9895 43.4894 20.0889C43.4674 20.1884 43.4068 20.275 43.3209 20.3298C41.3733 21.5717 39.6746 23.1334 38.2719 24.9716C38.2361 25.0187 38.1898 25.0569 38.1368 25.0831C38.0837 25.1093 38.0253 25.1229 37.9662 25.1228ZM56.2335 41.9408C56.1773 41.9409 56.1217 41.9286 56.0707 41.9048C56.0197 41.881 55.9746 41.8463 55.9385 41.8031C55.8732 41.7249 55.8416 41.6239 55.8506 41.5224C55.8597 41.421 55.9087 41.3272 55.9868 41.2618C57.2421 40.2123 58.2983 38.9684 59.1262 37.565C59.1787 37.4786 59.263 37.4164 59.361 37.3918C59.459 37.3671 59.5628 37.3821 59.6499 37.4335C59.7369 37.4848 59.8002 37.5684 59.8261 37.6661C59.8519 37.7638 59.8383 37.8677 59.788 37.9554C58.9155 39.4346 57.8024 40.7454 56.4797 41.8513C56.4108 41.9092 56.3236 41.9409 56.2335 41.9408Z" fill="white"/>
</g>
<path d="M1132 39.5C1134.49 39.5 1136.5 37.4853 1136.5 35C1136.5 32.5147 1134.49 30.5 1132 30.5C1129.51 30.5 1127.5 32.5147 1127.5 35C1127.5 37.4853 1129.51 39.5 1132 39.5Z" stroke="#50C878" stroke-width="2" stroke-miterlimit="10" stroke-linecap="round" stroke-linejoin="round"/>
<path d="M1138.06 21.1851C1136.88 20.4801 1135.35 20.9001 1134.64 22.0851L1134.47 22.3701C1133.11 24.7251 1130.89 24.7251 1129.54 22.3701L1129.38 22.0851C1128.67 20.9001 1127.14 20.4801 1125.95 21.1851L1123.36 22.6701C1121.99 23.4501 1121.53 25.2051 1122.31 26.5551C1123.67 28.9101 1122.57 30.8301 1119.85 30.8301C1118.28 30.8301 1117 32.1201 1117 33.6801V36.3201C1117 37.8801 1118.28 39.1701 1119.85 39.1701C1122.57 39.1701 1123.67 41.0901 1122.31 43.4451C1121.53 44.7951 1121.99 46.5501 1123.36 47.3301L1125.95 48.8151C1127.14 49.5201 1128.67 49.1002 1129.38 47.9152L1129.54 47.6301C1130.9 45.2751 1133.12 45.2751 1134.47 47.6301L1134.64 47.9152C1135.35 49.1002 1136.88 49.5201 1138.06 48.8151L1140.66 47.3301C1142.02 46.5501 1142.48 44.8101 1141.7 43.4451C1140.34 41.0901 1141.45 39.1701 1144.17 39.1701C1145.74 39.1701 1147.02 37.8801 1147.02 36.3201V33.6801C1147.02 32.1051 1145.73 30.8301 1144.17 30.8301" stroke="#979797" stroke-width="2" stroke-miterlimit="10" stroke-linecap="round" stroke-linejoin="round"/>
<circle cx="1144.75" cy="23.75" r="3.75" fill="#50C878"/>
<path d="M1180.62 23V50H1187.38V23C1187.38 21.35 1186.7 20 1184.67 20H1183.33C1181.3 20 1180.62 21.35 1180.62 23Z" stroke="#50C878" stroke-width="2" stroke-linecap="round" stroke-linejoin="round"/>
<path d="M1169 50H1199" stroke="#979797" stroke-width="2" stroke-miterlimit="10" stroke-linecap="round" stroke-linejoin="round"/>
<path d="M1170.5 32V50H1176.5V32C1176.5 30.35 1175.9 29 1174.1 29H1172.9C1171.1 29 1170.5 30.35 1170.5 32Z" stroke="#979797" stroke-width="2" stroke-linecap="round" stroke-linejoin="round"/>
<path d="M1191.5 39.5V50H1197.5V39.5C1197.5 37.85 1196.9 36.5 1195.1 36.5H1193.9C1192.1 36.5 1191.5 37.85 1191.5 39.5Z" stroke="#979797" stroke-width="2" stroke-linecap="round" stroke-linejoin="round"/>
<mask id="path-28-inside-2_1_3243" fill="white">
<path d="M1218 35C1218 25.0589 1226.06 17 1236 17H1308C1317.94 17 1326 25.0589 1326 35C1326 44.9411 1317.94 53 1308 53H1236C1226.06 53 1218 44.9411 1218 35Z"/>
</mask>
<path d="M1218 35C1218 25.0589 1226.06 17 1236 17H1308C1317.94 17 1326 25.0589 1326 35C1326 44.9411 1317.94 53 1308 53H1236C1226.06 53 1218 44.9411 1218 35Z" fill="#50C878"/>
<path d="M1218 17H1326H1218ZM1326 35C1326 46.0457 1317.05 55 1306 55H1238C1226.95 55 1218 46.0457 1218 35C1218 43.8366 1226.06 51 1236 51H1308C1317.94 51 1326 43.8366 1326 35ZM1218 53V17V53ZM1326 17V53V17Z" fill="#228B22" mask="url(#path-28-inside-2_1_3243)"/>
<path d="M1242.32 39.5H1240.36L1235.93 32.794V39.5H1233.97V29.714H1235.93L1240.36 36.434V29.714H1242.32V39.5ZM1251.47 35.454C1251.47 35.734 1251.45 35.986 1251.41 36.21H1245.74C1245.79 36.77 1245.99 37.2087 1246.33 37.526C1246.68 37.8433 1247.1 38.002 1247.61 38.002C1248.33 38.002 1248.85 37.6893 1249.16 37.064H1251.27C1251.05 37.8107 1250.62 38.4267 1249.99 38.912C1249.35 39.388 1248.57 39.626 1247.65 39.626C1246.9 39.626 1246.23 39.4627 1245.63 39.136C1245.04 38.8 1244.58 38.3287 1244.25 37.722C1243.92 37.1153 1243.76 36.4153 1243.76 35.622C1243.76 34.8193 1243.92 34.1147 1244.25 33.508C1244.57 32.9013 1245.03 32.4347 1245.62 32.108C1246.21 31.7813 1246.88 31.618 1247.65 31.618C1248.39 31.618 1249.04 31.7767 1249.62 32.094C1250.21 32.4113 1250.66 32.864 1250.98 33.452C1251.31 34.0307 1251.47 34.698 1251.47 35.454ZM1249.44 34.894C1249.43 34.39 1249.25 33.9887 1248.89 33.69C1248.54 33.382 1248.11 33.228 1247.59 33.228C1247.11 33.228 1246.7 33.3773 1246.36 33.676C1246.03 33.9653 1245.83 34.3713 1245.76 34.894H1249.44ZM1263.65 31.744L1261.39 39.5H1259.27L1257.86 34.082L1256.44 39.5H1254.32L1252.03 31.744H1254.02L1255.39 37.652L1256.88 31.744H1258.95L1260.41 37.638L1261.78 31.744H1263.65ZM1274.85 32.668C1274.63 32.2573 1274.32 31.9447 1273.93 31.73C1273.54 31.5153 1273.08 31.408 1272.56 31.408C1271.98 31.408 1271.47 31.5387 1271.02 31.8C1270.57 32.0613 1270.22 32.4347 1269.97 32.92C1269.72 33.4053 1269.59 33.9653 1269.59 34.6C1269.59 35.2533 1269.72 35.8227 1269.97 36.308C1270.23 36.7933 1270.59 37.1667 1271.05 37.428C1271.5 37.6893 1272.04 37.82 1272.64 37.82C1273.39 37.82 1274 37.624 1274.48 37.232C1274.95 36.8307 1275.26 36.2753 1275.41 35.566H1272.05V34.068H1277.35V35.776C1277.22 36.4573 1276.94 37.0873 1276.51 37.666C1276.08 38.2447 1275.52 38.7113 1274.84 39.066C1274.17 39.4113 1273.41 39.584 1272.57 39.584C1271.63 39.584 1270.78 39.374 1270.01 38.954C1269.25 38.5247 1268.66 37.932 1268.22 37.176C1267.79 36.42 1267.57 35.5613 1267.57 34.6C1267.57 33.6387 1267.79 32.78 1268.22 32.024C1268.66 31.2587 1269.25 30.666 1270.01 30.246C1270.78 29.8167 1271.62 29.602 1272.56 29.602C1273.66 29.602 1274.62 29.8727 1275.43 30.414C1276.24 30.946 1276.8 31.6973 1277.11 32.668H1274.85ZM1278.29 35.594C1278.29 34.81 1278.45 34.1147 1278.75 33.508C1279.07 32.9013 1279.5 32.4347 1280.03 32.108C1280.57 31.7813 1281.17 31.618 1281.83 31.618C1282.41 31.618 1282.92 31.7347 1283.35 31.968C1283.78 32.2013 1284.13 32.4953 1284.4 32.85V31.744H1286.37V39.5H1284.4V38.366C1284.14 38.73 1283.79 39.0333 1283.35 39.276C1282.91 39.5093 1282.4 39.626 1281.82 39.626C1281.17 39.626 1280.57 39.458 1280.03 39.122C1279.5 38.786 1279.07 38.3147 1278.75 37.708C1278.45 37.092 1278.29 36.3873 1278.29 35.594ZM1284.4 35.622C1284.4 35.146 1284.3 34.74 1284.12 34.404C1283.93 34.0587 1283.68 33.7973 1283.36 33.62C1283.04 33.4333 1282.7 33.34 1282.34 33.34C1281.97 33.34 1281.64 33.4287 1281.33 33.606C1281.02 33.7833 1280.77 34.0447 1280.57 34.39C1280.39 34.726 1280.29 35.1273 1280.29 35.594C1280.29 36.0607 1280.39 36.4713 1280.57 36.826C1280.77 37.1713 1281.02 37.4373 1281.33 37.624C1281.65 37.8107 1281.98 37.904 1282.34 37.904C1282.7 37.904 1283.04 37.8153 1283.36 37.638C1283.68 37.4513 1283.93 37.19 1284.12 36.854C1284.3 36.5087 1284.4 36.098 1284.4 35.622ZM1297.92 31.632C1298.87 31.632 1299.63 31.926 1300.21 32.514C1300.8 33.0927 1301.09 33.9047 1301.09 34.95V39.5H1299.13V35.216C1299.13 34.6093 1298.98 34.1473 1298.67 33.83C1298.36 33.5033 1297.94 33.34 1297.41 33.34C1296.88 33.34 1296.46 33.5033 1296.14 33.83C1295.83 34.1473 1295.68 34.6093 1295.68 35.216V39.5H1293.72V35.216C1293.72 34.6093 1293.56 34.1473 1293.25 33.83C1292.95 33.5033 1292.53 33.34 1291.99 33.34C1291.45 33.34 1291.02 33.5033 1290.71 33.83C1290.4 34.1473 1290.24 34.6093 1290.24 35.216V39.5H1288.28V31.744H1290.24V32.682C1290.5 32.3553 1290.82 32.0987 1291.21 31.912C1291.61 31.7253 1292.05 31.632 1292.53 31.632C1293.13 31.632 1293.67 31.7627 1294.15 32.024C1294.63 32.276 1295 32.64 1295.26 33.116C1295.51 32.668 1295.87 32.3087 1296.35 32.038C1296.83 31.7673 1297.36 31.632 1297.92 31.632ZM1310.16 35.454C1310.16 35.734 1310.15 35.986 1310.11 36.21H1304.44C1304.48 36.77 1304.68 37.2087 1305.03 37.526C1305.37 37.8433 1305.8 38.002 1306.3 38.002C1307.03 38.002 1307.55 37.6893 1307.85 37.064H1309.97C1309.74 37.8107 1309.31 38.4267 1308.68 38.912C1308.05 39.388 1307.27 39.626 1306.34 39.626C1305.6 39.626 1304.92 39.4627 1304.33 39.136C1303.74 38.8 1303.28 38.3287 1302.94 37.722C1302.61 37.1153 1302.45 36.4153 1302.45 35.622C1302.45 34.8193 1302.61 34.1147 1302.94 33.508C1303.27 32.9013 1303.72 32.4347 1304.31 32.108C1304.9 31.7813 1305.58 31.618 1306.34 31.618C1307.08 31.618 1307.74 31.7767 1308.32 32.094C1308.9 32.4113 1309.36 32.864 1309.67 33.452C1310 34.0307 1310.16 34.698 1310.16 35.454ZM1308.13 34.894C1308.12 34.39 1307.94 33.9887 1307.59 33.69C1307.23 33.382 1306.8 33.228 1306.29 33.228C1305.8 33.228 1305.39 33.3773 1305.05 33.676C1304.73 33.9653 1304.53 34.3713 1304.45 34.894H1308.13Z" fill="white"/>
<mask id="path-31-inside-3_1_3243" fill="white">
<path d="M1342 35C1342 25.0589 1350.06 17 1360 17H1392C1401.94 17 1410 25.0589 1410 35C1410 44.9411 1401.94 53 1392 53H1360C1350.06 53 1342 44.9411 1342 35Z"/>
</mask>
<path d="M1342 35C1342 25.0589 1350.06 17 1360 17H1392C1401.94 17 1410 25.0589 1410 35C1410 44.9411 1401.94 53 1392 53H1360C1350.06 53 1342 44.9411 1342 35Z" fill="#50C878"/>
<path d="M1342 17H1410H1342ZM1410 35C1410 46.0457 1401.05 55 1390 55H1362C1350.95 55 1342 46.0457 1342 35C1342 43.8366 1350.06 51 1360 51H1392C1401.94 51 1410 43.8366 1410 35ZM1342 53V17V53ZM1410 17V53V17Z" fill="#228B22" mask="url(#path-31-inside-3_1_3243)"/>
<path d="M1359.93 37.946H1363.15V39.5H1357.97V29.728H1359.93V37.946ZM1367.84 39.626C1367.09 39.626 1366.42 39.4627 1365.82 39.136C1365.22 38.8 1364.75 38.3287 1364.41 37.722C1364.07 37.1153 1363.9 36.4153 1363.9 35.622C1363.9 34.8287 1364.07 34.1287 1364.42 33.522C1364.77 32.9153 1365.26 32.4487 1365.86 32.122C1366.47 31.786 1367.15 31.618 1367.89 31.618C1368.64 31.618 1369.32 31.786 1369.92 32.122C1370.53 32.4487 1371 32.9153 1371.35 33.522C1371.7 34.1287 1371.88 34.8287 1371.88 35.622C1371.88 36.4153 1371.7 37.1153 1371.34 37.722C1370.98 38.3287 1370.5 38.8 1369.88 39.136C1369.27 39.4627 1368.59 39.626 1367.84 39.626ZM1367.84 37.918C1368.19 37.918 1368.52 37.834 1368.83 37.666C1369.15 37.4887 1369.4 37.2273 1369.59 36.882C1369.77 36.5367 1369.87 36.1167 1369.87 35.622C1369.87 34.8847 1369.67 34.32 1369.28 33.928C1368.9 33.5267 1368.42 33.326 1367.86 33.326C1367.3 33.326 1366.83 33.5267 1366.45 33.928C1366.08 34.32 1365.89 34.8847 1365.89 35.622C1365.89 36.3593 1366.07 36.9287 1366.44 37.33C1366.81 37.722 1367.28 37.918 1367.84 37.918ZM1376.36 31.618C1376.94 31.618 1377.44 31.7347 1377.88 31.968C1378.32 32.192 1378.67 32.486 1378.92 32.85V31.744H1380.89V39.556C1380.89 40.2747 1380.75 40.914 1380.46 41.474C1380.17 42.0433 1379.74 42.4913 1379.16 42.818C1378.58 43.154 1377.88 43.322 1377.06 43.322C1375.96 43.322 1375.05 43.0653 1374.34 42.552C1373.64 42.0387 1373.24 41.3387 1373.15 40.452H1375.1C1375.2 40.8067 1375.42 41.0867 1375.76 41.292C1376.1 41.5067 1376.52 41.614 1377 41.614C1377.57 41.614 1378.03 41.4413 1378.39 41.096C1378.74 40.76 1378.92 40.2467 1378.92 39.556V38.352C1378.67 38.716 1378.32 39.0193 1377.87 39.262C1377.43 39.5047 1376.93 39.626 1376.36 39.626C1375.7 39.626 1375.11 39.458 1374.57 39.122C1374.02 38.786 1373.59 38.3147 1373.28 37.708C1372.97 37.092 1372.82 36.3873 1372.82 35.594C1372.82 34.81 1372.97 34.1147 1373.28 33.508C1373.59 32.9013 1374.02 32.4347 1374.55 32.108C1375.09 31.7813 1375.69 31.618 1376.36 31.618ZM1378.92 35.622C1378.92 35.146 1378.83 34.74 1378.64 34.404C1378.45 34.0587 1378.2 33.7973 1377.88 33.62C1377.57 33.4333 1377.23 33.34 1376.86 33.34C1376.5 33.34 1376.16 33.4287 1375.85 33.606C1375.55 33.7833 1375.29 34.0447 1375.1 34.39C1374.91 34.726 1374.82 35.1273 1374.82 35.594C1374.82 36.0607 1374.91 36.4713 1375.1 36.826C1375.29 37.1713 1375.55 37.4373 1375.85 37.624C1376.17 37.8107 1376.51 37.904 1376.86 37.904C1377.23 37.904 1377.57 37.8153 1377.88 37.638C1378.2 37.4513 1378.45 37.19 1378.64 36.854C1378.83 36.5087 1378.92 36.098 1378.92 35.622ZM1383.8 30.82C1383.46 30.82 1383.17 30.7127 1382.93 30.498C1382.71 30.274 1382.6 29.9987 1382.6 29.672C1382.6 29.3453 1382.71 29.0747 1382.93 28.86C1383.17 28.636 1383.46 28.524 1383.8 28.524C1384.15 28.524 1384.43 28.636 1384.66 28.86C1384.89 29.0747 1385.01 29.3453 1385.01 29.672C1385.01 29.9987 1384.89 30.274 1384.66 30.498C1384.43 30.7127 1384.15 30.82 1383.8 30.82ZM1384.77 31.744V39.5H1382.81V31.744H1384.77ZM1391 31.632C1391.93 31.632 1392.67 31.926 1393.24 32.514C1393.81 33.0927 1394.1 33.9047 1394.1 34.95V39.5H1392.14V35.216C1392.14 34.6 1391.98 34.1287 1391.67 33.802C1391.37 33.466 1390.95 33.298 1390.41 33.298C1389.87 33.298 1389.44 33.466 1389.13 33.802C1388.82 34.1287 1388.66 34.6 1388.66 35.216V39.5H1386.7V31.744H1388.66V32.71C1388.93 32.374 1389.26 32.1127 1389.66 31.926C1390.07 31.73 1390.52 31.632 1391 31.632Z" fill="white"/>
<defs>
<filter id="filter0_d_1_3243" x="-24" y="-17" width="1488" height="117.709" filterUnits="userSpaceOnUse" color-interpolation-filters="sRGB">
<feFlood flood-opacity="0" result="BackgroundImageFix"/>
<feColorMatrix in="SourceAlpha" type="matrix" values="0 0 0 0 0 0 0 0 0 0 0 0 0 0 0 0 0 0 127 0" result="hardAlpha"/>
<feOffset dy="7"/>
<feGaussianBlur stdDeviation="12"/>
<feComposite in2="hardAlpha" operator="out"/>
<feColorMatrix type="matrix" values="0 0 0 0 0 0 0 0 0 0 0 0 0 0 0 0 0 0 0.1 0"/>
<feBlend mode="normal" in2="BackgroundImageFix" result="effect1_dropShadow_1_3243"/>
<feBlend mode="normal" in="SourceGraphic" in2="effect1_dropShadow_1_3243" result="shape"/>
</filter>
<clipPath id="clip0_1_3243">
<rect width="42" height="42" fill="white" transform="translate(30 14)"/>
</clipPath>
</defs>
</svg>
