<svg width="36" height="36" viewBox="0 0 36 36" fill="none" xmlns="http://www.w3.org/2000/svg">
<path d="M18 22.5C20.4853 22.5 22.5 20.4853 22.5 18C22.5 15.5147 20.4853 13.5 18 13.5C15.5147 13.5 13.5 15.5147 13.5 18C13.5 20.4853 15.5147 22.5 18 22.5Z" stroke="#50C878" stroke-width="2" stroke-miterlimit="10" stroke-linecap="round" stroke-linejoin="round"/>
<path d="M24.06 4.18515C22.875 3.48015 21.345 3.90015 20.64 5.08515L20.475 5.37015C19.11 7.72515 16.89 7.72515 15.54 5.37015L15.375 5.08515C14.67 3.90015 13.14 3.48015 11.955 4.18515L9.36 5.67015C7.995 6.45015 7.53 8.20515 8.31 9.55515C9.675 11.9101 8.565 13.8301 5.85 13.8301C4.275 13.8301 3 15.1201 3 16.6801V19.3201C3 20.8801 4.275 22.1701 5.85 22.1701C8.565 22.1701 9.675 24.0901 8.31 26.4451C7.53 27.7951 7.995 29.5501 9.36 30.3301L11.955 31.8151C13.14 32.5201 14.67 32.1002 15.375 30.9152L15.54 30.6301C16.905 28.2751 19.125 28.2751 20.475 30.6301L20.64 30.9152C21.345 32.1002 22.875 32.5201 24.06 31.8151L26.655 30.3301C28.02 29.5501 28.485 27.8101 27.705 26.4451C26.34 24.0901 27.45 22.1701 30.165 22.1701C31.74 22.1701 33.015 20.8801 33.015 19.3201V16.6801C33.015 15.1051 31.725 13.8301 30.165 13.8301" stroke="#979797" stroke-width="2" stroke-miterlimit="10" stroke-linecap="round" stroke-linejoin="round"/>
<circle cx="30.75" cy="6.75" r="3.75" fill="#50C878"/>
</svg>
