<svg width="614" height="530" viewBox="0 0 614 530" fill="none" xmlns="http://www.w3.org/2000/svg">
<g clip-path="url(#clip0_1_3054)">
<path d="M488.486 487.318L366.183 481.812V166.17L488.486 162.71V487.318Z" fill="url(#paint0_linear_1_3054)"/>
<path d="M488.486 487.318L366.183 481.812V166.17L488.486 162.71V487.318Z" fill="url(#paint1_linear_1_3054)" fill-opacity="0.3"/>
<path d="M577.233 480.726L488.486 487.318V162.71L577.233 167.781V480.726Z" fill="url(#paint2_linear_1_3054)"/>
<path d="M300.463 502.223L182.386 494.682V274.868L300.463 278.266V502.223Z" fill="url(#paint3_linear_1_3054)"/>
<path d="M300.463 502.223L182.386 494.682V274.868L300.463 278.266V502.223Z" fill="url(#paint4_linear_1_3054)" fill-opacity="0.3"/>
<path d="M403.747 493.427L300.464 502.223V278.266L403.747 276.108V493.427Z" fill="url(#paint5_linear_1_3054)"/>
<path d="M182.386 274.868L294.691 269.997L403.747 276.108L299.233 279.98L182.386 274.868Z" fill="url(#paint6_linear_1_3054)"/>
<path d="M133.384 520.298L20.2782 511.584V373.706L133.384 381.221V520.298Z" fill="url(#paint7_linear_1_3054)"/>
<path d="M255.089 510.085L133.384 520.297V381.221L255.089 374.539V510.085Z" fill="url(#paint8_linear_1_3054)"/>
<path d="M20.2782 373.706L133.729 368.542L255.089 374.539L133.384 381.221L20.2782 373.706Z" fill="url(#paint9_linear_1_3054)"/>
<path d="M487.995 437.768C484.098 414.647 499.02 394.655 521.331 393.734C543.532 392.818 563.719 411.19 566.449 434.159C569.103 456.484 554.203 474.982 533.15 476.046C511.995 477.115 491.782 460.234 487.995 437.768Z" fill="#FFD700"/>
<path d="M442.595 434.068L444.772 445.132C445.405 448.348 448.433 450.827 451.534 450.682L457.174 450.417C458.865 455.587 461.044 460.521 463.641 465.163L459.531 468.116C457.176 469.808 456.933 473.299 458.973 475.91L465.875 484.732C467.882 487.299 475.161 488.821 477.498 487.168L477.591 483.635C481.38 487.438 485.502 490.849 489.879 493.815L488.212 498.106C487.175 500.775 488.64 504.03 491.472 505.38L501.077 509.955C503.879 511.291 512.143 511.497 513.21 508.87L509.697 503.541C514.508 505.093 519.471 506.149 524.515 506.655L525.196 511.137C525.641 514.064 528.371 516.298 531.295 516.142L541.243 515.603C544.157 515.445 546.193 512.956 545.787 510.034L545.166 505.558C549.962 504.531 554.511 502.979 558.763 500.955L561.521 504.772C563.303 507.239 572.003 508.503 574.349 506.904L576.988 500.864C579.344 499.252 579.833 495.928 578.073 493.429L575.241 489.409C578.63 486.074 581.643 482.333 584.217 478.25L588.717 480.541C591.43 481.922 598.985 482.628 600.191 479.938L599.92 468.915C601.137 466.184 599.918 462.814 597.186 461.394L592.407 458.909C593.587 454.147 594.282 449.144 594.442 443.959L599.92 443.701C602.928 443.56 605.122 440.878 604.82 437.697L603.783 426.764C603.475 423.526 600.753 421.005 597.702 421.142L591.819 421.404C590.451 416.241 588.585 411.253 586.274 406.5L591.27 402.954C593.781 401.171 594.33 397.43 592.489 394.585L592.038 383.12C590.174 380.221 580.707 381.042 578.173 382.864L572.877 386.668C569.275 382.686 565.31 379.057 561.046 375.85L563.691 369.273C564.93 366.192 563.539 362.348 560.572 360.698L555.542 354.199C552.543 352.527 543.968 354.551 542.753 357.684L540.099 364.517C535.262 362.795 530.253 361.569 525.142 360.906L524.053 353.046C523.558 349.472 520.522 346.66 517.273 346.779L506.181 347.187C502.922 347.307 500.723 350.318 501.268 353.899L502.466 361.775C497.574 362.822 492.939 364.424 488.611 366.509L489.228 358.244C487.103 355.213 478.049 355.968 475.523 357.86L466.944 364.287C464.436 366.166 464.16 370.113 466.315 373.092L470.907 379.444C467.552 382.988 464.614 386.933 462.144 391.211L461.545 387.204C458.442 385.589 449.184 387.402 448.133 390.455L444.581 400.789C443.546 403.799 445.212 407.505 448.294 409.073L454.414 412.187C453.472 417.148 453.047 422.308 453.181 427.6L447.12 427.871C443.98 428.014 441.95 430.792 442.595 434.068ZM470.705 439.506C464.967 407.568 485.371 379.667 516.366 378.375C547.222 377.09 575.102 402.763 578.637 434.542C582.036 465.1 561.516 490.18 532.816 491.615C503.992 493.059 476.222 470.205 470.705 439.506Z" fill="#FFD700"/>
<path d="M449.666 433.973L451.792 445.038C452.411 448.256 455.427 450.736 458.531 450.589L464.173 450.324C465.842 455.494 467.999 460.429 470.575 465.072L466.452 468.025C464.091 469.717 463.83 473.208 465.859 475.818L472.721 484.643C474.718 487.21 478.225 487.944 480.567 486.289L484.445 483.546C488.217 487.349 492.325 490.76 496.687 493.726L495.001 498.017C493.952 500.686 495.402 503.941 498.23 505.291L507.815 509.869C510.613 511.204 513.74 510.157 514.81 507.526L516.466 503.454C521.271 505.007 526.229 506.062 531.271 506.568L531.933 511.052C532.365 513.979 535.086 516.216 538.009 516.057L547.962 515.519C550.878 515.36 552.923 512.872 552.532 509.949L551.933 505.474C556.733 504.446 561.289 502.894 565.551 500.87L568.294 504.687C570.065 507.154 573.398 507.851 575.749 506.251L583.78 500.779C586.144 499.168 586.647 495.843 584.898 493.344L582.083 489.325C585.488 485.987 588.516 482.246 591.109 478.163L595.599 480.454C598.305 481.835 601.476 480.774 602.689 478.079L606.852 468.829C608.082 466.097 606.875 462.727 604.15 461.307L599.382 458.823C600.582 454.061 601.3 449.055 601.485 443.87L606.964 443.612C609.972 443.471 612.179 440.787 611.891 437.608L610.901 426.672C610.608 423.435 607.898 420.912 604.844 421.048L598.959 421.311C597.613 416.147 595.768 411.158 593.481 406.404L598.494 402.858C601.012 401.076 601.58 397.332 599.751 394.49L593.466 384.712C591.606 381.817 588.027 380.944 585.486 382.764L580.176 386.568C576.591 382.584 572.641 378.957 568.392 375.75L571.065 369.173C572.32 366.09 570.944 362.248 567.986 360.596L557.838 354.933C554.843 353.261 551.41 354.451 550.18 357.582L547.495 364.415C542.664 362.693 537.662 361.467 532.553 360.804L531.501 352.942C531.021 349.365 527.998 346.553 524.749 346.673L513.655 347.081C510.396 347.2 508.182 350.212 508.712 353.795L509.875 361.671C504.977 362.717 500.337 364.32 495.997 366.404L491.381 359.812C489.263 356.787 485.482 355.862 482.947 357.756L474.34 364.185C471.823 366.063 471.53 370.011 473.672 372.992L478.238 379.346C474.866 382.89 471.91 386.838 469.423 391.115L462.96 387.75C459.861 386.134 456.476 387.307 455.412 390.36L451.814 400.693C450.766 403.703 452.417 407.41 455.49 408.977L461.597 412.093C460.631 417.055 460.184 422.217 460.295 427.508L454.234 427.78C451.078 427.919 449.036 430.698 449.666 433.973ZM475.471 439.516C469.583 406.198 490.973 377.04 523.339 375.689C555.562 374.345 584.518 401.178 588.01 434.342C591.363 466.177 569.846 492.269 539.96 493.761C509.953 495.261 481.12 471.493 475.471 439.516Z" fill="#F0E68C"/>
<path d="M492.485 438.735C488.655 415.641 503.627 395.675 525.926 394.755C548.113 393.84 568.238 412.189 570.902 435.13C573.492 457.426 558.55 475.903 537.506 476.965C516.362 478.033 496.207 461.174 492.485 438.735Z" fill="#F0E68C"/>
<path d="M227.219 206.436V208.47H223.871V219H221.351V208.47H218.003V206.436H227.219ZM238.327 213.798C238.327 214.158 238.303 214.482 238.255 214.77H230.965C231.025 215.49 231.277 216.054 231.721 216.462C232.165 216.87 232.711 217.074 233.359 217.074C234.295 217.074 234.961 216.672 235.357 215.868H238.075C237.787 216.828 237.235 217.62 236.419 218.244C235.603 218.856 234.601 219.162 233.413 219.162C232.453 219.162 231.589 218.952 230.821 218.532C230.065 218.1 229.471 217.494 229.039 216.714C228.619 215.934 228.409 215.034 228.409 214.014C228.409 212.982 228.619 212.076 229.039 211.296C229.459 210.516 230.047 209.916 230.803 209.496C231.559 209.076 232.429 208.866 233.413 208.866C234.361 208.866 235.207 209.07 235.951 209.478C236.707 209.886 237.289 210.468 237.697 211.224C238.117 211.968 238.327 212.826 238.327 213.798ZM235.717 213.078C235.705 212.43 235.471 211.914 235.015 211.53C234.559 211.134 234.001 210.936 233.341 210.936C232.717 210.936 232.189 211.128 231.757 211.512C231.337 211.884 231.079 212.406 230.983 213.078H235.717ZM242.687 210.576C243.011 210.048 243.431 209.634 243.947 209.334C244.475 209.034 245.075 208.884 245.747 208.884V211.53H245.081C244.289 211.53 243.689 211.716 243.281 212.088C242.885 212.46 242.687 213.108 242.687 214.032V219H240.167V209.028H242.687V210.576ZM256.714 213.798C256.714 214.158 256.69 214.482 256.642 214.77H249.352C249.412 215.49 249.664 216.054 250.108 216.462C250.552 216.87 251.098 217.074 251.746 217.074C252.682 217.074 253.348 216.672 253.744 215.868H256.462C256.174 216.828 255.622 217.62 254.806 218.244C253.99 218.856 252.988 219.162 251.8 219.162C250.84 219.162 249.976 218.952 249.208 218.532C248.452 218.1 247.858 217.494 247.426 216.714C247.006 215.934 246.796 215.034 246.796 214.014C246.796 212.982 247.006 212.076 247.426 211.296C247.846 210.516 248.434 209.916 249.19 209.496C249.946 209.076 250.816 208.866 251.8 208.866C252.748 208.866 253.594 209.07 254.338 209.478C255.094 209.886 255.676 210.468 256.084 211.224C256.504 211.968 256.714 212.826 256.714 213.798ZM254.104 213.078C254.092 212.43 253.858 211.914 253.402 211.53C252.946 211.134 252.388 210.936 251.728 210.936C251.104 210.936 250.576 211.128 250.144 211.512C249.724 211.884 249.466 212.406 249.37 213.078H254.104ZM262.37 219.162C261.554 219.162 260.822 219.018 260.174 218.73C259.526 218.43 259.01 218.028 258.626 217.524C258.254 217.02 258.05 216.462 258.014 215.85H260.552C260.6 216.234 260.786 216.552 261.11 216.804C261.446 217.056 261.86 217.182 262.352 217.182C262.832 217.182 263.204 217.086 263.468 216.894C263.744 216.702 263.882 216.456 263.882 216.156C263.882 215.832 263.714 215.592 263.378 215.436C263.054 215.268 262.532 215.088 261.812 214.896C261.068 214.716 260.456 214.53 259.976 214.338C259.508 214.146 259.1 213.852 258.752 213.456C258.416 213.06 258.248 212.526 258.248 211.854C258.248 211.302 258.404 210.798 258.716 210.342C259.04 209.886 259.496 209.526 260.084 209.262C260.684 208.998 261.386 208.866 262.19 208.866C263.378 208.866 264.326 209.166 265.034 209.766C265.742 210.354 266.132 211.152 266.204 212.16H263.792C263.756 211.764 263.588 211.452 263.288 211.224C263 210.984 262.61 210.864 262.118 210.864C261.662 210.864 261.308 210.948 261.056 211.116C260.816 211.284 260.696 211.518 260.696 211.818C260.696 212.154 260.864 212.412 261.2 212.592C261.536 212.76 262.058 212.934 262.766 213.114C263.486 213.294 264.08 213.48 264.548 213.672C265.016 213.864 265.418 214.164 265.754 214.572C266.102 214.968 266.282 215.496 266.294 216.156C266.294 216.732 266.132 217.248 265.808 217.704C265.496 218.16 265.04 218.52 264.44 218.784C263.852 219.036 263.162 219.162 262.37 219.162ZM267.714 213.978C267.714 212.97 267.912 212.076 268.308 211.296C268.716 210.516 269.262 209.916 269.946 209.496C270.642 209.076 271.416 208.866 272.268 208.866C273.012 208.866 273.66 209.016 274.212 209.316C274.776 209.616 275.226 209.994 275.562 210.45V209.028H278.1V219H275.562V217.542C275.238 218.01 274.788 218.4 274.212 218.712C273.648 219.012 272.994 219.162 272.25 219.162C271.41 219.162 270.642 218.946 269.946 218.514C269.262 218.082 268.716 217.476 268.308 216.696C267.912 215.904 267.714 214.998 267.714 213.978ZM275.562 214.014C275.562 213.402 275.442 212.88 275.202 212.448C274.962 212.004 274.638 211.668 274.23 211.44C273.822 211.2 273.384 211.08 272.916 211.08C272.448 211.08 272.016 211.194 271.62 211.422C271.224 211.65 270.9 211.986 270.648 212.43C270.408 212.862 270.288 213.378 270.288 213.978C270.288 214.578 270.408 215.106 270.648 215.562C270.9 216.006 271.224 216.348 271.62 216.588C272.028 216.828 272.46 216.948 272.916 216.948C273.384 216.948 273.822 216.834 274.23 216.606C274.638 216.366 274.962 216.03 275.202 215.598C275.442 215.154 275.562 214.626 275.562 214.014ZM295.272 206.436V219H292.752V213.654H287.37V219H284.85V206.436H287.37V211.602H292.752V206.436H295.272ZM297.105 213.978C297.105 212.97 297.303 212.076 297.699 211.296C298.107 210.516 298.653 209.916 299.337 209.496C300.033 209.076 300.807 208.866 301.659 208.866C302.403 208.866 303.051 209.016 303.603 209.316C304.167 209.616 304.617 209.994 304.953 210.45V209.028H307.491V219H304.953V217.542C304.629 218.01 304.179 218.4 303.603 218.712C303.039 219.012 302.385 219.162 301.641 219.162C300.801 219.162 300.033 218.946 299.337 218.514C298.653 218.082 298.107 217.476 297.699 216.696C297.303 215.904 297.105 214.998 297.105 213.978ZM304.953 214.014C304.953 213.402 304.833 212.88 304.593 212.448C304.353 212.004 304.029 211.668 303.621 211.44C303.213 211.2 302.775 211.08 302.307 211.08C301.839 211.08 301.407 211.194 301.011 211.422C300.615 211.65 300.291 211.986 300.039 212.43C299.799 212.862 299.679 213.378 299.679 213.978C299.679 214.578 299.799 215.106 300.039 215.562C300.291 216.006 300.615 216.348 301.011 216.588C301.419 216.828 301.851 216.948 302.307 216.948C302.775 216.948 303.213 216.834 303.621 216.606C304.029 216.366 304.353 216.03 304.593 215.598C304.833 215.154 304.953 214.626 304.953 214.014ZM312.472 210.576C312.796 210.048 313.216 209.634 313.732 209.334C314.26 209.034 314.86 208.884 315.532 208.884V211.53H314.866C314.074 211.53 313.474 211.716 313.066 212.088C312.67 212.46 312.472 213.108 312.472 214.032V219H309.952V209.028H312.472V210.576ZM319.749 210.468C320.073 210.012 320.517 209.634 321.081 209.334C321.657 209.022 322.311 208.866 323.043 208.866C323.895 208.866 324.663 209.076 325.347 209.496C326.043 209.916 326.589 210.516 326.985 211.296C327.393 212.064 327.597 212.958 327.597 213.978C327.597 214.998 327.393 215.904 326.985 216.696C326.589 217.476 326.043 218.082 325.347 218.514C324.663 218.946 323.895 219.162 323.043 219.162C322.311 219.162 321.663 219.012 321.099 218.712C320.547 218.412 320.097 218.034 319.749 217.578V223.752H317.229V209.028H319.749V210.468ZM325.023 213.978C325.023 213.378 324.897 212.862 324.645 212.43C324.405 211.986 324.081 211.65 323.673 211.422C323.277 211.194 322.845 211.08 322.377 211.08C321.921 211.08 321.489 211.2 321.081 211.44C320.685 211.668 320.361 212.004 320.109 212.448C319.869 212.892 319.749 213.414 319.749 214.014C319.749 214.614 319.869 215.136 320.109 215.58C320.361 216.024 320.685 216.366 321.081 216.606C321.489 216.834 321.921 216.948 322.377 216.948C322.845 216.948 323.277 216.828 323.673 216.588C324.081 216.348 324.405 216.006 324.645 215.562C324.897 215.118 325.023 214.59 325.023 213.978ZM338.699 213.798C338.699 214.158 338.675 214.482 338.627 214.77H331.337C331.397 215.49 331.649 216.054 332.093 216.462C332.537 216.87 333.083 217.074 333.731 217.074C334.667 217.074 335.333 216.672 335.729 215.868H338.447C338.159 216.828 337.607 217.62 336.791 218.244C335.975 218.856 334.973 219.162 333.785 219.162C332.825 219.162 331.961 218.952 331.193 218.532C330.437 218.1 329.843 217.494 329.411 216.714C328.991 215.934 328.781 215.034 328.781 214.014C328.781 212.982 328.991 212.076 329.411 211.296C329.831 210.516 330.419 209.916 331.175 209.496C331.931 209.076 332.801 208.866 333.785 208.866C334.733 208.866 335.579 209.07 336.323 209.478C337.079 209.886 337.661 210.468 338.069 211.224C338.489 211.968 338.699 212.826 338.699 213.798ZM336.089 213.078C336.077 212.43 335.843 211.914 335.387 211.53C334.931 211.134 334.373 210.936 333.713 210.936C333.089 210.936 332.561 211.128 332.129 211.512C331.709 211.884 331.451 212.406 331.355 213.078H336.089ZM343.058 210.576C343.382 210.048 343.802 209.634 344.318 209.334C344.846 209.034 345.446 208.884 346.118 208.884V211.53H345.452C344.66 211.53 344.06 211.716 343.652 212.088C343.256 212.46 343.058 213.108 343.058 214.032V219H340.538V209.028H343.058V210.576Z" fill="#545454"/>
<g clip-path="url(#clip1_1_3054)">
<path d="M265 248.5C269.971 248.5 274 244.471 274 239.5C274 234.529 269.971 230.5 265 230.5C260.029 230.5 256 234.529 256 239.5C256 244.471 260.029 248.5 265 248.5Z" fill="#F0F0F0"/>
<path d="M264.609 239.5H274C274 238.688 273.892 237.901 273.69 237.152H264.609V239.5Z" fill="#D80027"/>
<path d="M264.609 234.804H272.679C272.128 233.905 271.424 233.111 270.602 232.457H264.609V234.804Z" fill="#D80027"/>
<path d="M265 248.5C267.118 248.5 269.065 247.768 270.602 246.544H259.398C260.935 247.768 262.882 248.5 265 248.5Z" fill="#D80027"/>
<path d="M257.321 244.196H272.679C273.121 243.474 273.464 242.685 273.69 241.848H256.31C256.536 242.685 256.879 243.474 257.321 244.196Z" fill="#D80027"/>
<path d="M260.169 231.905H260.989L260.226 232.46L260.518 233.357L259.755 232.802L258.992 233.357L259.244 232.582C258.572 233.141 257.983 233.797 257.498 234.527H257.761L257.275 234.88C257.2 235.006 257.127 235.134 257.058 235.265L257.289 235.978L256.857 235.664C256.749 235.892 256.651 236.125 256.562 236.363L256.818 237.149H257.761L256.998 237.703L257.289 238.6L256.527 238.046L256.07 238.378C256.024 238.745 256 239.12 256 239.5H265C265 234.529 265 233.943 265 230.5C263.222 230.5 261.565 231.016 260.169 231.905ZM260.518 238.6L259.755 238.046L258.992 238.6L259.283 237.703L258.52 237.149H259.463L259.755 236.252L260.046 237.149H260.989L260.226 237.703L260.518 238.6ZM260.226 235.081L260.518 235.978L259.755 235.424L258.992 235.978L259.283 235.081L258.52 234.527H259.463L259.755 233.63L260.046 234.527H260.989L260.226 235.081ZM263.746 238.6L262.983 238.046L262.22 238.6L262.512 237.703L261.749 237.149H262.692L262.983 236.252L263.274 237.149H264.217L263.454 237.703L263.746 238.6ZM263.454 235.081L263.746 235.978L262.983 235.424L262.22 235.978L262.512 235.081L261.749 234.527H262.692L262.983 233.63L263.274 234.527H264.217L263.454 235.081ZM263.454 232.46L263.746 233.357L262.983 232.802L262.22 233.357L262.512 232.46L261.749 231.905H262.692L262.983 231.009L263.274 231.905H264.217L263.454 232.46Z" fill="#0052B4"/>
</g>
<path d="M281.985 242.012V240.472L286.563 233.92H288.845V240.304H290.077V242.012H288.845V244H286.885V242.012H281.985ZM287.011 236.02L284.141 240.304H287.011V236.02ZM291.941 241.788C292.837 241.041 293.551 240.421 294.083 239.926C294.615 239.422 295.058 238.899 295.413 238.358C295.768 237.817 295.945 237.285 295.945 236.762C295.945 236.286 295.833 235.913 295.609 235.642C295.385 235.371 295.04 235.236 294.573 235.236C294.106 235.236 293.747 235.395 293.495 235.712C293.243 236.02 293.112 236.445 293.103 236.986H291.199C291.236 235.866 291.568 235.017 292.193 234.438C292.828 233.859 293.63 233.57 294.601 233.57C295.665 233.57 296.482 233.855 297.051 234.424C297.62 234.984 297.905 235.726 297.905 236.65C297.905 237.378 297.709 238.073 297.317 238.736C296.925 239.399 296.477 239.977 295.973 240.472C295.469 240.957 294.811 241.545 293.999 242.236H298.129V243.86H291.213V242.404L291.941 241.788ZM299.364 238.764C299.364 237.149 299.653 235.885 300.232 234.97C300.82 234.055 301.791 233.598 303.144 233.598C304.497 233.598 305.463 234.055 306.042 234.97C306.63 235.885 306.924 237.149 306.924 238.764C306.924 240.388 306.63 241.662 306.042 242.586C305.463 243.51 304.497 243.972 303.144 243.972C301.791 243.972 300.82 243.51 300.232 242.586C299.653 241.662 299.364 240.388 299.364 238.764ZM304.992 238.764C304.992 238.073 304.945 237.495 304.852 237.028C304.768 236.552 304.591 236.165 304.32 235.866C304.059 235.567 303.667 235.418 303.144 235.418C302.621 235.418 302.225 235.567 301.954 235.866C301.693 236.165 301.515 236.552 301.422 237.028C301.338 237.495 301.296 238.073 301.296 238.764C301.296 239.473 301.338 240.071 301.422 240.556C301.506 241.032 301.683 241.419 301.954 241.718C302.225 242.007 302.621 242.152 303.144 242.152C303.667 242.152 304.063 242.007 304.334 241.718C304.605 241.419 304.782 241.032 304.866 240.556C304.95 240.071 304.992 239.473 304.992 238.764Z" fill="#777777"/>
<g filter="url(#filter0_di_1_3054)">
<circle cx="283.5" cy="149.5" r="34.5" fill="#6495ED"/>
<circle cx="283.5" cy="149.5" r="32.5" stroke="white" stroke-width="4"/>
</g>
<g filter="url(#filter1_d_1_3054)">
<path d="M281.053 144.748V148.31H276.217V163H271.771V148.31H266.935V144.748H281.053ZM299.092 144.748V163H294.646V155.486H287.73V163H283.284V144.748H287.73V151.898H294.646V144.748H299.092Z" fill="white" fill-opacity="0.5" shape-rendering="crispEdges"/>
</g>
<circle cx="284" cy="121" r="14" fill="white"/>
<path d="M280.054 124.808C280.416 124.52 280.582 124.387 280.55 124.408C281.595 123.544 282.416 122.835 283.014 122.28C283.622 121.725 284.134 121.144 284.55 120.536C284.966 119.928 285.174 119.336 285.174 118.76C285.174 118.323 285.072 117.981 284.87 117.736C284.667 117.491 284.363 117.368 283.958 117.368C283.552 117.368 283.232 117.523 282.998 117.832C282.774 118.131 282.662 118.557 282.662 119.112H280.022C280.043 118.205 280.235 117.448 280.598 116.84C280.971 116.232 281.456 115.784 282.054 115.496C282.662 115.208 283.334 115.064 284.07 115.064C285.339 115.064 286.294 115.389 286.934 116.04C287.584 116.691 287.91 117.539 287.91 118.584C287.91 119.725 287.52 120.787 286.742 121.768C285.963 122.739 284.971 123.688 283.766 124.616H288.086V126.84H280.054V124.808Z" fill="#6495ED"/>
<path d="M41.2188 312.436V314.47H37.8708V325H35.3508V314.47H32.0028V312.436H41.2188ZM52.3274 319.798C52.3274 320.158 52.3034 320.482 52.2554 320.77H44.9654C45.0254 321.49 45.2774 322.054 45.7214 322.462C46.1654 322.87 46.7114 323.074 47.3594 323.074C48.2954 323.074 48.9614 322.672 49.3574 321.868H52.0754C51.7874 322.828 51.2354 323.62 50.4194 324.244C49.6034 324.856 48.6014 325.162 47.4134 325.162C46.4534 325.162 45.5894 324.952 44.8214 324.532C44.0654 324.1 43.4714 323.494 43.0394 322.714C42.6194 321.934 42.4094 321.034 42.4094 320.014C42.4094 318.982 42.6194 318.076 43.0394 317.296C43.4594 316.516 44.0474 315.916 44.8034 315.496C45.5594 315.076 46.4294 314.866 47.4134 314.866C48.3614 314.866 49.2074 315.07 49.9514 315.478C50.7074 315.886 51.2894 316.468 51.6974 317.224C52.1174 317.968 52.3274 318.826 52.3274 319.798ZM49.7174 319.078C49.7054 318.43 49.4714 317.914 49.0154 317.53C48.5594 317.134 48.0014 316.936 47.3414 316.936C46.7174 316.936 46.1894 317.128 45.7574 317.512C45.3374 317.884 45.0794 318.406 44.9834 319.078H49.7174ZM56.6868 316.576C57.0108 316.048 57.4308 315.634 57.9468 315.334C58.4748 315.034 59.0748 314.884 59.7468 314.884V317.53H59.0808C58.2888 317.53 57.6888 317.716 57.2808 318.088C56.8848 318.46 56.6868 319.108 56.6868 320.032V325H54.1668V315.028H56.6868V316.576ZM70.7141 319.798C70.7141 320.158 70.6901 320.482 70.6421 320.77H63.3521C63.4121 321.49 63.6641 322.054 64.1081 322.462C64.5521 322.87 65.0981 323.074 65.7461 323.074C66.6821 323.074 67.3481 322.672 67.7441 321.868H70.4621C70.1741 322.828 69.6221 323.62 68.8061 324.244C67.9901 324.856 66.9881 325.162 65.8001 325.162C64.8401 325.162 63.9761 324.952 63.2081 324.532C62.4521 324.1 61.8581 323.494 61.4261 322.714C61.0061 321.934 60.7961 321.034 60.7961 320.014C60.7961 318.982 61.0061 318.076 61.4261 317.296C61.8461 316.516 62.4341 315.916 63.1901 315.496C63.9461 315.076 64.8161 314.866 65.8001 314.866C66.7481 314.866 67.5941 315.07 68.3381 315.478C69.0941 315.886 69.6761 316.468 70.0841 317.224C70.5041 317.968 70.7141 318.826 70.7141 319.798ZM68.1041 319.078C68.0921 318.43 67.8581 317.914 67.4021 317.53C66.9461 317.134 66.3881 316.936 65.7281 316.936C65.1041 316.936 64.5761 317.128 64.1441 317.512C63.7241 317.884 63.4661 318.406 63.3701 319.078H68.1041ZM76.3695 325.162C75.5535 325.162 74.8215 325.018 74.1735 324.73C73.5255 324.43 73.0095 324.028 72.6255 323.524C72.2535 323.02 72.0495 322.462 72.0135 321.85H74.5515C74.5995 322.234 74.7855 322.552 75.1095 322.804C75.4455 323.056 75.8595 323.182 76.3515 323.182C76.8315 323.182 77.2035 323.086 77.4675 322.894C77.7435 322.702 77.8815 322.456 77.8815 322.156C77.8815 321.832 77.7135 321.592 77.3775 321.436C77.0535 321.268 76.5315 321.088 75.8115 320.896C75.0675 320.716 74.4555 320.53 73.9755 320.338C73.5075 320.146 73.0995 319.852 72.7515 319.456C72.4155 319.06 72.2475 318.526 72.2475 317.854C72.2475 317.302 72.4035 316.798 72.7155 316.342C73.0395 315.886 73.4955 315.526 74.0835 315.262C74.6835 314.998 75.3855 314.866 76.1895 314.866C77.3775 314.866 78.3255 315.166 79.0335 315.766C79.7415 316.354 80.1315 317.152 80.2035 318.16H77.7915C77.7555 317.764 77.5875 317.452 77.2875 317.224C76.9995 316.984 76.6095 316.864 76.1175 316.864C75.6615 316.864 75.3075 316.948 75.0555 317.116C74.8155 317.284 74.6955 317.518 74.6955 317.818C74.6955 318.154 74.8635 318.412 75.1995 318.592C75.5355 318.76 76.0575 318.934 76.7655 319.114C77.4855 319.294 78.0795 319.48 78.5475 319.672C79.0155 319.864 79.4175 320.164 79.7535 320.572C80.1015 320.968 80.2815 321.496 80.2935 322.156C80.2935 322.732 80.1315 323.248 79.8075 323.704C79.4955 324.16 79.0395 324.52 78.4395 324.784C77.8515 325.036 77.1615 325.162 76.3695 325.162ZM81.7141 319.978C81.7141 318.97 81.9121 318.076 82.3081 317.296C82.7161 316.516 83.2621 315.916 83.9461 315.496C84.6421 315.076 85.4161 314.866 86.2681 314.866C87.0121 314.866 87.6601 315.016 88.2121 315.316C88.7761 315.616 89.2261 315.994 89.5621 316.45V315.028H92.1001V325H89.5621V323.542C89.2381 324.01 88.7881 324.4 88.2121 324.712C87.6481 325.012 86.9941 325.162 86.2501 325.162C85.4101 325.162 84.6421 324.946 83.9461 324.514C83.2621 324.082 82.7161 323.476 82.3081 322.696C81.9121 321.904 81.7141 320.998 81.7141 319.978ZM89.5621 320.014C89.5621 319.402 89.4421 318.88 89.2021 318.448C88.9621 318.004 88.6381 317.668 88.2301 317.44C87.8221 317.2 87.3841 317.08 86.9161 317.08C86.4481 317.08 86.0161 317.194 85.6201 317.422C85.2241 317.65 84.9001 317.986 84.6481 318.43C84.4081 318.862 84.2881 319.378 84.2881 319.978C84.2881 320.578 84.4081 321.106 84.6481 321.562C84.9001 322.006 85.2241 322.348 85.6201 322.588C86.0281 322.828 86.4601 322.948 86.9161 322.948C87.3841 322.948 87.8221 322.834 88.2301 322.606C88.6381 322.366 88.9621 322.03 89.2021 321.598C89.4421 321.154 89.5621 320.626 89.5621 320.014ZM109.272 312.436V325H106.752V319.654H101.37V325H98.8504V312.436H101.37V317.602H106.752V312.436H109.272ZM111.105 319.978C111.105 318.97 111.303 318.076 111.699 317.296C112.107 316.516 112.653 315.916 113.337 315.496C114.033 315.076 114.807 314.866 115.659 314.866C116.403 314.866 117.051 315.016 117.603 315.316C118.167 315.616 118.617 315.994 118.953 316.45V315.028H121.491V325H118.953V323.542C118.629 324.01 118.179 324.4 117.603 324.712C117.039 325.012 116.385 325.162 115.641 325.162C114.801 325.162 114.033 324.946 113.337 324.514C112.653 324.082 112.107 323.476 111.699 322.696C111.303 321.904 111.105 320.998 111.105 319.978ZM118.953 320.014C118.953 319.402 118.833 318.88 118.593 318.448C118.353 318.004 118.029 317.668 117.621 317.44C117.213 317.2 116.775 317.08 116.307 317.08C115.839 317.08 115.407 317.194 115.011 317.422C114.615 317.65 114.291 317.986 114.039 318.43C113.799 318.862 113.679 319.378 113.679 319.978C113.679 320.578 113.799 321.106 114.039 321.562C114.291 322.006 114.615 322.348 115.011 322.588C115.419 322.828 115.851 322.948 116.307 322.948C116.775 322.948 117.213 322.834 117.621 322.606C118.029 322.366 118.353 322.03 118.593 321.598C118.833 321.154 118.953 320.626 118.953 320.014ZM126.472 316.576C126.796 316.048 127.216 315.634 127.732 315.334C128.26 315.034 128.86 314.884 129.532 314.884V317.53H128.866C128.074 317.53 127.474 317.716 127.066 318.088C126.67 318.46 126.472 319.108 126.472 320.032V325H123.952V315.028H126.472V316.576ZM133.749 316.468C134.073 316.012 134.517 315.634 135.081 315.334C135.657 315.022 136.311 314.866 137.043 314.866C137.895 314.866 138.663 315.076 139.347 315.496C140.043 315.916 140.589 316.516 140.985 317.296C141.393 318.064 141.597 318.958 141.597 319.978C141.597 320.998 141.393 321.904 140.985 322.696C140.589 323.476 140.043 324.082 139.347 324.514C138.663 324.946 137.895 325.162 137.043 325.162C136.311 325.162 135.663 325.012 135.099 324.712C134.547 324.412 134.097 324.034 133.749 323.578V329.752H131.229V315.028H133.749V316.468ZM139.023 319.978C139.023 319.378 138.897 318.862 138.645 318.43C138.405 317.986 138.081 317.65 137.673 317.422C137.277 317.194 136.845 317.08 136.377 317.08C135.921 317.08 135.489 317.2 135.081 317.44C134.685 317.668 134.361 318.004 134.109 318.448C133.869 318.892 133.749 319.414 133.749 320.014C133.749 320.614 133.869 321.136 134.109 321.58C134.361 322.024 134.685 322.366 135.081 322.606C135.489 322.834 135.921 322.948 136.377 322.948C136.845 322.948 137.277 322.828 137.673 322.588C138.081 322.348 138.405 322.006 138.645 321.562C138.897 321.118 139.023 320.59 139.023 319.978ZM152.699 319.798C152.699 320.158 152.675 320.482 152.627 320.77H145.337C145.397 321.49 145.649 322.054 146.093 322.462C146.537 322.87 147.083 323.074 147.731 323.074C148.667 323.074 149.333 322.672 149.729 321.868H152.447C152.159 322.828 151.607 323.62 150.791 324.244C149.975 324.856 148.973 325.162 147.785 325.162C146.825 325.162 145.961 324.952 145.193 324.532C144.437 324.1 143.843 323.494 143.411 322.714C142.991 321.934 142.781 321.034 142.781 320.014C142.781 318.982 142.991 318.076 143.411 317.296C143.831 316.516 144.419 315.916 145.175 315.496C145.931 315.076 146.801 314.866 147.785 314.866C148.733 314.866 149.579 315.07 150.323 315.478C151.079 315.886 151.661 316.468 152.069 317.224C152.489 317.968 152.699 318.826 152.699 319.798ZM150.089 319.078C150.077 318.43 149.843 317.914 149.387 317.53C148.931 317.134 148.373 316.936 147.713 316.936C147.089 316.936 146.561 317.128 146.129 317.512C145.709 317.884 145.451 318.406 145.355 319.078H150.089ZM157.058 316.576C157.382 316.048 157.802 315.634 158.318 315.334C158.846 315.034 159.446 314.884 160.118 314.884V317.53H159.452C158.66 317.53 158.06 317.716 157.652 318.088C157.256 318.46 157.058 319.108 157.058 320.032V325H154.538V315.028H157.058V316.576Z" fill="#545454"/>
<g clip-path="url(#clip2_1_3054)">
<path d="M79 354.5C83.9706 354.5 88 350.471 88 345.5C88 340.529 83.9706 336.5 79 336.5C74.0294 336.5 70 340.529 70 345.5C70 350.471 74.0294 354.5 79 354.5Z" fill="#F0F0F0"/>
<path d="M78.6088 345.5H88.0001C88.0001 344.688 87.8918 343.901 87.69 343.152H78.6088V345.5Z" fill="#D80027"/>
<path d="M78.6088 340.804H86.6791C86.1282 339.905 85.4237 339.111 84.6024 338.457H78.6088V340.804Z" fill="#D80027"/>
<path d="M79.0001 354.5C81.1182 354.5 83.065 353.768 84.6024 352.543H73.3977C74.9351 353.768 76.8819 354.5 79.0001 354.5Z" fill="#D80027"/>
<path d="M71.321 350.196H86.6791C87.1214 349.474 87.4644 348.685 87.69 347.848H70.3101C70.5357 348.685 70.8787 349.474 71.321 350.196Z" fill="#D80027"/>
<path d="M74.169 337.905H74.9891L74.2262 338.46L74.5176 339.357L73.7548 338.802L72.9919 339.357L73.2437 338.582C72.572 339.141 71.9832 339.797 71.4981 340.527H71.7609L71.2753 340.88C71.1996 341.006 71.127 341.134 71.0575 341.265L71.2894 341.978L70.8568 341.664C70.7492 341.892 70.6508 342.125 70.5624 342.363L70.8179 343.149H71.7609L70.998 343.703L71.2894 344.6L70.5265 344.046L70.0696 344.378C70.0238 344.745 70 345.12 70 345.5H79C79 340.529 79 339.943 79 336.5C77.2221 336.5 75.5647 337.016 74.169 337.905ZM74.5176 344.6L73.7548 344.046L72.9919 344.6L73.2833 343.703L72.5205 343.149H73.4634L73.7548 342.252L74.0462 343.149H74.9891L74.2262 343.703L74.5176 344.6ZM74.2262 341.081L74.5176 341.978L73.7548 341.424L72.9919 341.978L73.2833 341.081L72.5205 340.527H73.4634L73.7548 339.63L74.0462 340.527H74.9891L74.2262 341.081ZM77.7459 344.6L76.9831 344.046L76.2202 344.6L76.5116 343.703L75.7487 343.149H76.6917L76.9831 342.252L77.2744 343.149H78.2174L77.4545 343.703L77.7459 344.6ZM77.4545 341.081L77.7459 341.978L76.9831 341.424L76.2202 341.978L76.5116 341.081L75.7487 340.527H76.6917L76.9831 339.63L77.2744 340.527H78.2174L77.4545 341.081ZM77.4545 338.46L77.7459 339.357L76.9831 338.802L76.2202 339.357L76.5116 338.46L75.7487 337.905H76.6917L76.9831 337.009L77.2744 337.905H78.2174L77.4545 338.46Z" fill="#0052B4"/>
</g>
<path d="M95.9851 348.012V346.472L100.563 339.92H102.845V346.304H104.077V348.012H102.845V350H100.885V348.012H95.9851ZM101.011 342.02L98.1411 346.304H101.011V342.02ZM105.941 347.788C106.837 347.041 107.551 346.421 108.083 345.926C108.615 345.422 109.058 344.899 109.413 344.358C109.768 343.817 109.945 343.285 109.945 342.762C109.945 342.286 109.833 341.913 109.609 341.642C109.385 341.371 109.04 341.236 108.573 341.236C108.106 341.236 107.747 341.395 107.495 341.712C107.243 342.02 107.112 342.445 107.103 342.986H105.199C105.236 341.866 105.568 341.017 106.193 340.438C106.828 339.859 107.63 339.57 108.601 339.57C109.665 339.57 110.482 339.855 111.051 340.424C111.62 340.984 111.905 341.726 111.905 342.65C111.905 343.378 111.709 344.073 111.317 344.736C110.925 345.399 110.477 345.977 109.973 346.472C109.469 346.957 108.811 347.545 107.999 348.236H112.129V349.86H105.213V348.404L105.941 347.788ZM113.364 344.764C113.364 343.149 113.653 341.885 114.232 340.97C114.82 340.055 115.791 339.598 117.144 339.598C118.497 339.598 119.463 340.055 120.042 340.97C120.63 341.885 120.924 343.149 120.924 344.764C120.924 346.388 120.63 347.662 120.042 348.586C119.463 349.51 118.497 349.972 117.144 349.972C115.791 349.972 114.82 349.51 114.232 348.586C113.653 347.662 113.364 346.388 113.364 344.764ZM118.992 344.764C118.992 344.073 118.945 343.495 118.852 343.028C118.768 342.552 118.591 342.165 118.32 341.866C118.059 341.567 117.667 341.418 117.144 341.418C116.621 341.418 116.225 341.567 115.954 341.866C115.693 342.165 115.515 342.552 115.422 343.028C115.338 343.495 115.296 344.073 115.296 344.764C115.296 345.473 115.338 346.071 115.422 346.556C115.506 347.032 115.683 347.419 115.954 347.718C116.225 348.007 116.621 348.152 117.144 348.152C117.667 348.152 118.063 348.007 118.334 347.718C118.605 347.419 118.782 347.032 118.866 346.556C118.95 346.071 118.992 345.473 118.992 344.764Z" fill="#777777"/>
<g filter="url(#filter2_di_1_3054)">
<circle cx="97.5" cy="255.5" r="34.5" fill="#6495ED"/>
<circle cx="97.5" cy="255.5" r="32.5" stroke="white" stroke-width="4"/>
</g>
<g filter="url(#filter3_d_1_3054)">
<path d="M95.0525 250.748V254.31H90.2165V269H85.7705V254.31H80.9345V250.748H95.0525ZM113.092 250.748V269H108.646V261.486H101.73V269H97.2839V250.748H101.73V257.898H108.646V250.748H113.092Z" fill="white" fill-opacity="0.5" shape-rendering="crispEdges"/>
</g>
<circle cx="98" cy="227" r="14" fill="white"/>
<path d="M93.9723 224.616C94.0149 223.475 94.3883 222.595 95.0923 221.976C95.7963 221.357 96.7509 221.048 97.9563 221.048C98.7563 221.048 99.4389 221.187 100.004 221.464C100.58 221.741 101.012 222.12 101.3 222.6C101.599 223.08 101.748 223.619 101.748 224.216C101.748 224.92 101.572 225.496 101.22 225.944C100.868 226.381 100.458 226.68 99.9883 226.84V226.904C100.596 227.107 101.076 227.443 101.428 227.912C101.78 228.381 101.956 228.984 101.956 229.72C101.956 230.381 101.802 230.968 101.492 231.48C101.194 231.981 100.751 232.376 100.164 232.664C99.5883 232.952 98.9003 233.096 98.1003 233.096C96.8203 233.096 95.7963 232.781 95.0283 232.152C94.2709 231.523 93.8709 230.573 93.8283 229.304H96.4843C96.4949 229.773 96.6283 230.147 96.8843 230.424C97.1403 230.691 97.5136 230.824 98.0043 230.824C98.4203 230.824 98.7403 230.707 98.9643 230.472C99.1989 230.227 99.3163 229.907 99.3163 229.512C99.3163 229 99.1509 228.632 98.8203 228.408C98.5003 228.173 97.9829 228.056 97.2682 228.056H96.7563V225.832H97.2682C97.8123 225.832 98.2496 225.741 98.5803 225.56C98.9216 225.368 99.0923 225.032 99.0923 224.552C99.0923 224.168 98.9856 223.869 98.7723 223.656C98.5589 223.443 98.2656 223.336 97.8923 223.336C97.4869 223.336 97.1829 223.459 96.9803 223.704C96.7883 223.949 96.6763 224.253 96.6443 224.616H93.9723Z" fill="#6495ED"/>
<path d="M422.219 102.436V104.47H418.871V115H416.351V104.47H413.003V102.436H422.219ZM433.327 109.798C433.327 110.158 433.303 110.482 433.255 110.77H425.965C426.025 111.49 426.277 112.054 426.721 112.462C427.165 112.87 427.711 113.074 428.359 113.074C429.295 113.074 429.961 112.672 430.357 111.868H433.075C432.787 112.828 432.235 113.62 431.419 114.244C430.603 114.856 429.601 115.162 428.413 115.162C427.453 115.162 426.589 114.952 425.821 114.532C425.065 114.1 424.471 113.494 424.039 112.714C423.619 111.934 423.409 111.034 423.409 110.014C423.409 108.982 423.619 108.076 424.039 107.296C424.459 106.516 425.047 105.916 425.803 105.496C426.559 105.076 427.429 104.866 428.413 104.866C429.361 104.866 430.207 105.07 430.951 105.478C431.707 105.886 432.289 106.468 432.697 107.224C433.117 107.968 433.327 108.826 433.327 109.798ZM430.717 109.078C430.705 108.43 430.471 107.914 430.015 107.53C429.559 107.134 429.001 106.936 428.341 106.936C427.717 106.936 427.189 107.128 426.757 107.512C426.337 107.884 426.079 108.406 425.983 109.078H430.717ZM437.687 106.576C438.011 106.048 438.431 105.634 438.947 105.334C439.475 105.034 440.075 104.884 440.747 104.884V107.53H440.081C439.289 107.53 438.689 107.716 438.281 108.088C437.885 108.46 437.687 109.108 437.687 110.032V115H435.167V105.028H437.687V106.576ZM451.714 109.798C451.714 110.158 451.69 110.482 451.642 110.77H444.352C444.412 111.49 444.664 112.054 445.108 112.462C445.552 112.87 446.098 113.074 446.746 113.074C447.682 113.074 448.348 112.672 448.744 111.868H451.462C451.174 112.828 450.622 113.62 449.806 114.244C448.99 114.856 447.988 115.162 446.8 115.162C445.84 115.162 444.976 114.952 444.208 114.532C443.452 114.1 442.858 113.494 442.426 112.714C442.006 111.934 441.796 111.034 441.796 110.014C441.796 108.982 442.006 108.076 442.426 107.296C442.846 106.516 443.434 105.916 444.19 105.496C444.946 105.076 445.816 104.866 446.8 104.866C447.748 104.866 448.594 105.07 449.338 105.478C450.094 105.886 450.676 106.468 451.084 107.224C451.504 107.968 451.714 108.826 451.714 109.798ZM449.104 109.078C449.092 108.43 448.858 107.914 448.402 107.53C447.946 107.134 447.388 106.936 446.728 106.936C446.104 106.936 445.576 107.128 445.144 107.512C444.724 107.884 444.466 108.406 444.37 109.078H449.104ZM457.37 115.162C456.554 115.162 455.822 115.018 455.174 114.73C454.526 114.43 454.01 114.028 453.626 113.524C453.254 113.02 453.05 112.462 453.014 111.85H455.552C455.6 112.234 455.786 112.552 456.11 112.804C456.446 113.056 456.86 113.182 457.352 113.182C457.832 113.182 458.204 113.086 458.468 112.894C458.744 112.702 458.882 112.456 458.882 112.156C458.882 111.832 458.714 111.592 458.378 111.436C458.054 111.268 457.532 111.088 456.812 110.896C456.068 110.716 455.456 110.53 454.976 110.338C454.508 110.146 454.1 109.852 453.752 109.456C453.416 109.06 453.248 108.526 453.248 107.854C453.248 107.302 453.404 106.798 453.716 106.342C454.04 105.886 454.496 105.526 455.084 105.262C455.684 104.998 456.386 104.866 457.19 104.866C458.378 104.866 459.326 105.166 460.034 105.766C460.742 106.354 461.132 107.152 461.204 108.16H458.792C458.756 107.764 458.588 107.452 458.288 107.224C458 106.984 457.61 106.864 457.118 106.864C456.662 106.864 456.308 106.948 456.056 107.116C455.816 107.284 455.696 107.518 455.696 107.818C455.696 108.154 455.864 108.412 456.2 108.592C456.536 108.76 457.058 108.934 457.766 109.114C458.486 109.294 459.08 109.48 459.548 109.672C460.016 109.864 460.418 110.164 460.754 110.572C461.102 110.968 461.282 111.496 461.294 112.156C461.294 112.732 461.132 113.248 460.808 113.704C460.496 114.16 460.04 114.52 459.44 114.784C458.852 115.036 458.162 115.162 457.37 115.162ZM462.714 109.978C462.714 108.97 462.912 108.076 463.308 107.296C463.716 106.516 464.262 105.916 464.946 105.496C465.642 105.076 466.416 104.866 467.268 104.866C468.012 104.866 468.66 105.016 469.212 105.316C469.776 105.616 470.226 105.994 470.562 106.45V105.028H473.1V115H470.562V113.542C470.238 114.01 469.788 114.4 469.212 114.712C468.648 115.012 467.994 115.162 467.25 115.162C466.41 115.162 465.642 114.946 464.946 114.514C464.262 114.082 463.716 113.476 463.308 112.696C462.912 111.904 462.714 110.998 462.714 109.978ZM470.562 110.014C470.562 109.402 470.442 108.88 470.202 108.448C469.962 108.004 469.638 107.668 469.23 107.44C468.822 107.2 468.384 107.08 467.916 107.08C467.448 107.08 467.016 107.194 466.62 107.422C466.224 107.65 465.9 107.986 465.648 108.43C465.408 108.862 465.288 109.378 465.288 109.978C465.288 110.578 465.408 111.106 465.648 111.562C465.9 112.006 466.224 112.348 466.62 112.588C467.028 112.828 467.46 112.948 467.916 112.948C468.384 112.948 468.822 112.834 469.23 112.606C469.638 112.366 469.962 112.03 470.202 111.598C470.442 111.154 470.562 110.626 470.562 110.014ZM490.272 102.436V115H487.752V109.654H482.37V115H479.85V102.436H482.37V107.602H487.752V102.436H490.272ZM492.105 109.978C492.105 108.97 492.303 108.076 492.699 107.296C493.107 106.516 493.653 105.916 494.337 105.496C495.033 105.076 495.807 104.866 496.659 104.866C497.403 104.866 498.051 105.016 498.603 105.316C499.167 105.616 499.617 105.994 499.953 106.45V105.028H502.491V115H499.953V113.542C499.629 114.01 499.179 114.4 498.603 114.712C498.039 115.012 497.385 115.162 496.641 115.162C495.801 115.162 495.033 114.946 494.337 114.514C493.653 114.082 493.107 113.476 492.699 112.696C492.303 111.904 492.105 110.998 492.105 109.978ZM499.953 110.014C499.953 109.402 499.833 108.88 499.593 108.448C499.353 108.004 499.029 107.668 498.621 107.44C498.213 107.2 497.775 107.08 497.307 107.08C496.839 107.08 496.407 107.194 496.011 107.422C495.615 107.65 495.291 107.986 495.039 108.43C494.799 108.862 494.679 109.378 494.679 109.978C494.679 110.578 494.799 111.106 495.039 111.562C495.291 112.006 495.615 112.348 496.011 112.588C496.419 112.828 496.851 112.948 497.307 112.948C497.775 112.948 498.213 112.834 498.621 112.606C499.029 112.366 499.353 112.03 499.593 111.598C499.833 111.154 499.953 110.626 499.953 110.014ZM507.472 106.576C507.796 106.048 508.216 105.634 508.732 105.334C509.26 105.034 509.86 104.884 510.532 104.884V107.53H509.866C509.074 107.53 508.474 107.716 508.066 108.088C507.67 108.46 507.472 109.108 507.472 110.032V115H504.952V105.028H507.472V106.576ZM514.749 106.468C515.073 106.012 515.517 105.634 516.081 105.334C516.657 105.022 517.311 104.866 518.043 104.866C518.895 104.866 519.663 105.076 520.347 105.496C521.043 105.916 521.589 106.516 521.985 107.296C522.393 108.064 522.597 108.958 522.597 109.978C522.597 110.998 522.393 111.904 521.985 112.696C521.589 113.476 521.043 114.082 520.347 114.514C519.663 114.946 518.895 115.162 518.043 115.162C517.311 115.162 516.663 115.012 516.099 114.712C515.547 114.412 515.097 114.034 514.749 113.578V119.752H512.229V105.028H514.749V106.468ZM520.023 109.978C520.023 109.378 519.897 108.862 519.645 108.43C519.405 107.986 519.081 107.65 518.673 107.422C518.277 107.194 517.845 107.08 517.377 107.08C516.921 107.08 516.489 107.2 516.081 107.44C515.685 107.668 515.361 108.004 515.109 108.448C514.869 108.892 514.749 109.414 514.749 110.014C514.749 110.614 514.869 111.136 515.109 111.58C515.361 112.024 515.685 112.366 516.081 112.606C516.489 112.834 516.921 112.948 517.377 112.948C517.845 112.948 518.277 112.828 518.673 112.588C519.081 112.348 519.405 112.006 519.645 111.562C519.897 111.118 520.023 110.59 520.023 109.978ZM533.699 109.798C533.699 110.158 533.675 110.482 533.627 110.77H526.337C526.397 111.49 526.649 112.054 527.093 112.462C527.537 112.87 528.083 113.074 528.731 113.074C529.667 113.074 530.333 112.672 530.729 111.868H533.447C533.159 112.828 532.607 113.62 531.791 114.244C530.975 114.856 529.973 115.162 528.785 115.162C527.825 115.162 526.961 114.952 526.193 114.532C525.437 114.1 524.843 113.494 524.411 112.714C523.991 111.934 523.781 111.034 523.781 110.014C523.781 108.982 523.991 108.076 524.411 107.296C524.831 106.516 525.419 105.916 526.175 105.496C526.931 105.076 527.801 104.866 528.785 104.866C529.733 104.866 530.579 105.07 531.323 105.478C532.079 105.886 532.661 106.468 533.069 107.224C533.489 107.968 533.699 108.826 533.699 109.798ZM531.089 109.078C531.077 108.43 530.843 107.914 530.387 107.53C529.931 107.134 529.373 106.936 528.713 106.936C528.089 106.936 527.561 107.128 527.129 107.512C526.709 107.884 526.451 108.406 526.355 109.078H531.089ZM538.058 106.576C538.382 106.048 538.802 105.634 539.318 105.334C539.846 105.034 540.446 104.884 541.118 104.884V107.53H540.452C539.66 107.53 539.06 107.716 538.652 108.088C538.256 108.46 538.058 109.108 538.058 110.032V115H535.538V105.028H538.058V106.576Z" fill="#545454"/>
<g clip-path="url(#clip3_1_3054)">
<path d="M460 144.5C464.971 144.5 469 140.471 469 135.5C469 130.529 464.971 126.5 460 126.5C455.029 126.5 451 130.529 451 135.5C451 140.471 455.029 144.5 460 144.5Z" fill="#F0F0F0"/>
<path d="M459.609 135.5H469C469 134.688 468.892 133.901 468.69 133.152H459.609V135.5Z" fill="#D80027"/>
<path d="M459.609 130.804H467.679C467.128 129.905 466.424 129.111 465.602 128.457H459.609V130.804Z" fill="#D80027"/>
<path d="M460 144.5C462.118 144.5 464.065 143.768 465.602 142.544H454.398C455.935 143.768 457.882 144.5 460 144.5Z" fill="#D80027"/>
<path d="M452.321 140.196H467.679C468.121 139.474 468.464 138.685 468.69 137.848H451.31C451.536 138.685 451.879 139.474 452.321 140.196Z" fill="#D80027"/>
<path d="M455.169 127.905H455.989L455.226 128.46L455.518 129.357L454.755 128.802L453.992 129.357L454.244 128.582C453.572 129.141 452.983 129.797 452.498 130.527H452.761L452.275 130.88C452.2 131.006 452.127 131.134 452.058 131.265L452.289 131.978L451.857 131.664C451.749 131.892 451.651 132.125 451.562 132.363L451.818 133.149H452.761L451.998 133.703L452.289 134.6L451.527 134.046L451.07 134.378C451.024 134.745 451 135.12 451 135.5H460C460 130.529 460 129.943 460 126.5C458.222 126.5 456.565 127.016 455.169 127.905ZM455.518 134.6L454.755 134.046L453.992 134.6L454.283 133.703L453.52 133.149H454.463L454.755 132.252L455.046 133.149H455.989L455.226 133.703L455.518 134.6ZM455.226 131.081L455.518 131.978L454.755 131.424L453.992 131.978L454.283 131.081L453.52 130.527H454.463L454.755 129.63L455.046 130.527H455.989L455.226 131.081ZM458.746 134.6L457.983 134.046L457.22 134.6L457.512 133.703L456.749 133.149H457.692L457.983 132.252L458.274 133.149H459.217L458.454 133.703L458.746 134.6ZM458.454 131.081L458.746 131.978L457.983 131.424L457.22 131.978L457.512 131.081L456.749 130.527H457.692L457.983 129.63L458.274 130.527H459.217L458.454 131.081ZM458.454 128.46L458.746 129.357L457.983 128.802L457.22 129.357L457.512 128.46L456.749 127.905H457.692L457.983 127.009L458.274 127.905H459.217L458.454 128.46Z" fill="#0052B4"/>
</g>
<path d="M476.985 138.012V136.472L481.563 129.92H483.845V136.304H485.077V138.012H483.845V140H481.885V138.012H476.985ZM482.011 132.02L479.141 136.304H482.011V132.02ZM486.941 137.788C487.837 137.041 488.551 136.421 489.083 135.926C489.615 135.422 490.058 134.899 490.413 134.358C490.768 133.817 490.945 133.285 490.945 132.762C490.945 132.286 490.833 131.913 490.609 131.642C490.385 131.371 490.04 131.236 489.573 131.236C489.106 131.236 488.747 131.395 488.495 131.712C488.243 132.02 488.112 132.445 488.103 132.986H486.199C486.236 131.866 486.568 131.017 487.193 130.438C487.828 129.859 488.63 129.57 489.601 129.57C490.665 129.57 491.482 129.855 492.051 130.424C492.62 130.984 492.905 131.726 492.905 132.65C492.905 133.378 492.709 134.073 492.317 134.736C491.925 135.399 491.477 135.977 490.973 136.472C490.469 136.957 489.811 137.545 488.999 138.236H493.129V139.86H486.213V138.404L486.941 137.788ZM494.364 134.764C494.364 133.149 494.653 131.885 495.232 130.97C495.82 130.055 496.791 129.598 498.144 129.598C499.497 129.598 500.463 130.055 501.042 130.97C501.63 131.885 501.924 133.149 501.924 134.764C501.924 136.388 501.63 137.662 501.042 138.586C500.463 139.51 499.497 139.972 498.144 139.972C496.791 139.972 495.82 139.51 495.232 138.586C494.653 137.662 494.364 136.388 494.364 134.764ZM499.992 134.764C499.992 134.073 499.945 133.495 499.852 133.028C499.768 132.552 499.591 132.165 499.32 131.866C499.059 131.567 498.667 131.418 498.144 131.418C497.621 131.418 497.225 131.567 496.954 131.866C496.693 132.165 496.515 132.552 496.422 133.028C496.338 133.495 496.296 134.073 496.296 134.764C496.296 135.473 496.338 136.071 496.422 136.556C496.506 137.032 496.683 137.419 496.954 137.718C497.225 138.007 497.621 138.152 498.144 138.152C498.667 138.152 499.063 138.007 499.334 137.718C499.605 137.419 499.782 137.032 499.866 136.556C499.95 136.071 499.992 135.473 499.992 134.764Z" fill="#777777"/>
<g filter="url(#filter4_di_1_3054)">
<circle cx="478.5" cy="45.5" r="34.5" fill="#6495ED"/>
<circle cx="478.5" cy="45.5" r="32.5" stroke="white" stroke-width="4"/>
</g>
<g filter="url(#filter5_d_1_3054)">
<path d="M476.053 40.748V44.31H471.217V59H466.771V44.31H461.935V40.748H476.053ZM494.092 40.748V59H489.646V51.486H482.73V59H478.284V40.748H482.73V47.898H489.646V40.748H494.092Z" fill="white" fill-opacity="0.5" shape-rendering="crispEdges"/>
</g>
<circle cx="479" cy="17" r="14" fill="white"/>
<path d="M476.424 13.864V11.32H480.856V23H478.008V13.864H476.424Z" fill="#6495ED"/>
</g>
<defs>
<filter id="filter0_di_1_3054" x="245" y="115" width="77" height="77" filterUnits="userSpaceOnUse" color-interpolation-filters="sRGB">
<feFlood flood-opacity="0" result="BackgroundImageFix"/>
<feColorMatrix in="SourceAlpha" type="matrix" values="0 0 0 0 0 0 0 0 0 0 0 0 0 0 0 0 0 0 127 0" result="hardAlpha"/>
<feOffset dy="4"/>
<feGaussianBlur stdDeviation="2"/>
<feComposite in2="hardAlpha" operator="out"/>
<feColorMatrix type="matrix" values="0 0 0 0 0 0 0 0 0 0 0 0 0 0 0 0 0 0 0.25 0"/>
<feBlend mode="normal" in2="BackgroundImageFix" result="effect1_dropShadow_1_3054"/>
<feBlend mode="normal" in="SourceGraphic" in2="effect1_dropShadow_1_3054" result="shape"/>
<feColorMatrix in="SourceAlpha" type="matrix" values="0 0 0 0 0 0 0 0 0 0 0 0 0 0 0 0 0 0 127 0" result="hardAlpha"/>
<feOffset dy="16"/>
<feGaussianBlur stdDeviation="3.5"/>
<feComposite in2="hardAlpha" operator="arithmetic" k2="-1" k3="1"/>
<feColorMatrix type="matrix" values="0 0 0 0 0 0 0 0 0 0 0 0 0 0 0 0 0 0 0.1 0"/>
<feBlend mode="normal" in2="shape" result="effect2_innerShadow_1_3054"/>
</filter>
<filter id="filter1_d_1_3054" x="262.935" y="144.748" width="40.1573" height="26.252" filterUnits="userSpaceOnUse" color-interpolation-filters="sRGB">
<feFlood flood-opacity="0" result="BackgroundImageFix"/>
<feColorMatrix in="SourceAlpha" type="matrix" values="0 0 0 0 0 0 0 0 0 0 0 0 0 0 0 0 0 0 127 0" result="hardAlpha"/>
<feOffset dy="4"/>
<feGaussianBlur stdDeviation="2"/>
<feComposite in2="hardAlpha" operator="out"/>
<feColorMatrix type="matrix" values="0 0 0 0 0 0 0 0 0 0 0 0 0 0 0 0 0 0 0.25 0"/>
<feBlend mode="normal" in2="BackgroundImageFix" result="effect1_dropShadow_1_3054"/>
<feBlend mode="normal" in="SourceGraphic" in2="effect1_dropShadow_1_3054" result="shape"/>
</filter>
<filter id="filter2_di_1_3054" x="59" y="221" width="77" height="77" filterUnits="userSpaceOnUse" color-interpolation-filters="sRGB">
<feFlood flood-opacity="0" result="BackgroundImageFix"/>
<feColorMatrix in="SourceAlpha" type="matrix" values="0 0 0 0 0 0 0 0 0 0 0 0 0 0 0 0 0 0 127 0" result="hardAlpha"/>
<feOffset dy="4"/>
<feGaussianBlur stdDeviation="2"/>
<feComposite in2="hardAlpha" operator="out"/>
<feColorMatrix type="matrix" values="0 0 0 0 0 0 0 0 0 0 0 0 0 0 0 0 0 0 0.25 0"/>
<feBlend mode="normal" in2="BackgroundImageFix" result="effect1_dropShadow_1_3054"/>
<feBlend mode="normal" in="SourceGraphic" in2="effect1_dropShadow_1_3054" result="shape"/>
<feColorMatrix in="SourceAlpha" type="matrix" values="0 0 0 0 0 0 0 0 0 0 0 0 0 0 0 0 0 0 127 0" result="hardAlpha"/>
<feOffset dy="16"/>
<feGaussianBlur stdDeviation="3.5"/>
<feComposite in2="hardAlpha" operator="arithmetic" k2="-1" k3="1"/>
<feColorMatrix type="matrix" values="0 0 0 0 0 0 0 0 0 0 0 0 0 0 0 0 0 0 0.1 0"/>
<feBlend mode="normal" in2="shape" result="effect2_innerShadow_1_3054"/>
</filter>
<filter id="filter3_d_1_3054" x="76.9346" y="250.748" width="40.1573" height="26.252" filterUnits="userSpaceOnUse" color-interpolation-filters="sRGB">
<feFlood flood-opacity="0" result="BackgroundImageFix"/>
<feColorMatrix in="SourceAlpha" type="matrix" values="0 0 0 0 0 0 0 0 0 0 0 0 0 0 0 0 0 0 127 0" result="hardAlpha"/>
<feOffset dy="4"/>
<feGaussianBlur stdDeviation="2"/>
<feComposite in2="hardAlpha" operator="out"/>
<feColorMatrix type="matrix" values="0 0 0 0 0 0 0 0 0 0 0 0 0 0 0 0 0 0 0.25 0"/>
<feBlend mode="normal" in2="BackgroundImageFix" result="effect1_dropShadow_1_3054"/>
<feBlend mode="normal" in="SourceGraphic" in2="effect1_dropShadow_1_3054" result="shape"/>
</filter>
<filter id="filter4_di_1_3054" x="440" y="11" width="77" height="77" filterUnits="userSpaceOnUse" color-interpolation-filters="sRGB">
<feFlood flood-opacity="0" result="BackgroundImageFix"/>
<feColorMatrix in="SourceAlpha" type="matrix" values="0 0 0 0 0 0 0 0 0 0 0 0 0 0 0 0 0 0 127 0" result="hardAlpha"/>
<feOffset dy="4"/>
<feGaussianBlur stdDeviation="2"/>
<feComposite in2="hardAlpha" operator="out"/>
<feColorMatrix type="matrix" values="0 0 0 0 0 0 0 0 0 0 0 0 0 0 0 0 0 0 0.25 0"/>
<feBlend mode="normal" in2="BackgroundImageFix" result="effect1_dropShadow_1_3054"/>
<feBlend mode="normal" in="SourceGraphic" in2="effect1_dropShadow_1_3054" result="shape"/>
<feColorMatrix in="SourceAlpha" type="matrix" values="0 0 0 0 0 0 0 0 0 0 0 0 0 0 0 0 0 0 127 0" result="hardAlpha"/>
<feOffset dy="16"/>
<feGaussianBlur stdDeviation="3.5"/>
<feComposite in2="hardAlpha" operator="arithmetic" k2="-1" k3="1"/>
<feColorMatrix type="matrix" values="0 0 0 0 0 0 0 0 0 0 0 0 0 0 0 0 0 0 0.1 0"/>
<feBlend mode="normal" in2="shape" result="effect2_innerShadow_1_3054"/>
</filter>
<filter id="filter5_d_1_3054" x="457.935" y="40.748" width="40.1573" height="26.252" filterUnits="userSpaceOnUse" color-interpolation-filters="sRGB">
<feFlood flood-opacity="0" result="BackgroundImageFix"/>
<feColorMatrix in="SourceAlpha" type="matrix" values="0 0 0 0 0 0 0 0 0 0 0 0 0 0 0 0 0 0 127 0" result="hardAlpha"/>
<feOffset dy="4"/>
<feGaussianBlur stdDeviation="2"/>
<feComposite in2="hardAlpha" operator="out"/>
<feColorMatrix type="matrix" values="0 0 0 0 0 0 0 0 0 0 0 0 0 0 0 0 0 0 0.25 0"/>
<feBlend mode="normal" in2="BackgroundImageFix" result="effect1_dropShadow_1_3054"/>
<feBlend mode="normal" in="SourceGraphic" in2="effect1_dropShadow_1_3054" result="shape"/>
</filter>
<linearGradient id="paint0_linear_1_3054" x1="820.581" y1="177.989" x2="438.036" y2="339.118" gradientUnits="userSpaceOnUse">
<stop stop-color="#FDDAD4"/>
<stop offset="0.9964" stop-color="#FF6347"/>
</linearGradient>
<linearGradient id="paint1_linear_1_3054" x1="427.334" y1="162.71" x2="427.334" y2="487.318" gradientUnits="userSpaceOnUse">
<stop stop-opacity="0"/>
<stop offset="1"/>
</linearGradient>
<linearGradient id="paint2_linear_1_3054" x1="491.238" y1="268.08" x2="633.748" y2="511.322" gradientUnits="userSpaceOnUse">
<stop stop-color="#F89E8D"/>
<stop offset="0.9964" stop-color="#FF6347"/>
</linearGradient>
<linearGradient id="paint3_linear_1_3054" x1="621.086" y1="285.569" x2="295.865" y2="474.393" gradientUnits="userSpaceOnUse">
<stop stop-color="#FDDAD4"/>
<stop offset="0.9964" stop-color="#FF6347"/>
</linearGradient>
<linearGradient id="paint4_linear_1_3054" x1="241.425" y1="274.868" x2="241.425" y2="502.223" gradientUnits="userSpaceOnUse">
<stop stop-opacity="0"/>
<stop offset="1"/>
</linearGradient>
<linearGradient id="paint5_linear_1_3054" x1="303.667" y1="349.506" x2="374.739" y2="552.18" gradientUnits="userSpaceOnUse">
<stop stop-color="#F89E8D"/>
<stop offset="0.9964" stop-color="#FF6347"/>
</linearGradient>
<linearGradient id="paint6_linear_1_3054" x1="348.5" y1="280" x2="224" y2="270" gradientUnits="userSpaceOnUse">
<stop stop-color="#FF6347"/>
<stop offset="1" stop-color="#F89E8D"/>
</linearGradient>
<linearGradient id="paint7_linear_1_3054" x1="440.505" y1="380.606" x2="201.664" y2="586.621" gradientUnits="userSpaceOnUse">
<stop stop-color="#FDDAD4"/>
<stop offset="0.9964" stop-color="#FF6347"/>
</linearGradient>
<linearGradient id="paint8_linear_1_3054" x1="137.159" y1="421.853" x2="164.304" y2="563.359" gradientUnits="userSpaceOnUse">
<stop stop-color="#F89E8D"/>
<stop offset="0.9964" stop-color="#FF6347"/>
</linearGradient>
<linearGradient id="paint9_linear_1_3054" x1="69.5" y1="335" x2="140.232" y2="378.305" gradientUnits="userSpaceOnUse">
<stop stop-color="#F89D8C"/>
<stop offset="0.9964" stop-color="#FF765E"/>
</linearGradient>
<clipPath id="clip0_1_3054">
<rect width="614" height="530" fill="white"/>
</clipPath>
<clipPath id="clip1_1_3054">
<rect width="18" height="18" fill="white" transform="translate(256 230.5)"/>
</clipPath>
<clipPath id="clip2_1_3054">
<rect width="18" height="18" fill="white" transform="translate(70 336.5)"/>
</clipPath>
<clipPath id="clip3_1_3054">
<rect width="18" height="18" fill="white" transform="translate(451 126.5)"/>
</clipPath>
</defs>
</svg>
